<svg width="49" height="48" viewBox="0 0 49 48" fill="none" xmlns="http://www.w3.org/2000/svg">
<mask id="mask0_55_2242" style="mask-type:alpha" maskUnits="userSpaceOnUse" x="0" y="0" width="49" height="48">
<rect x="0.5" width="48" height="48" fill="#D9D9D9"/>
</mask>
<g mask="url(#mask0_55_2242)">
<path d="M14.0004 44.0002C12.5004 44.0002 11.2087 43.4919 10.1254 42.4752C9.04203 41.4585 8.50037 40.2002 8.50037 38.7002V10.8002C8.50037 9.53353 8.89203 8.4002 9.67537 7.4002C10.4587 6.4002 11.4837 5.76686 12.7504 5.5002L27.7504 2.5502C28.9837 2.28353 30.0837 2.5502 31.0504 3.3502C32.017 4.1502 32.5004 5.18353 32.5004 6.4502V30.3002C32.5004 31.2669 32.2004 32.1252 31.6004 32.8752C31.0004 33.6252 30.2337 34.0835 29.3004 34.2502L13.5504 37.4002C13.2504 37.4669 13.0004 37.6252 12.8004 37.8752C12.6004 38.1252 12.5004 38.4002 12.5004 38.7002C12.5004 39.0669 12.6504 39.3752 12.9504 39.6252C13.2504 39.8752 13.6004 40.0002 14.0004 40.0002H36.5004V10.0002C36.5004 9.43353 36.692 8.95853 37.0754 8.5752C37.4587 8.19186 37.9337 8.0002 38.5004 8.0002C39.067 8.0002 39.542 8.19186 39.9254 8.5752C40.3087 8.95853 40.5004 9.43353 40.5004 10.0002V40.0002C40.5004 41.1002 40.1087 42.0419 39.3254 42.8252C38.542 43.6085 37.6004 44.0002 36.5004 44.0002H14.0004ZM18.5004 32.3502L28.5004 30.4002V6.5002L18.5004 8.4502V32.3502ZM14.5004 33.1502V9.2502L13.7504 9.4002C13.3837 9.46686 13.0837 9.6252 12.8504 9.8752C12.617 10.1252 12.5004 10.4335 12.5004 10.8002V33.6502C12.667 33.5835 12.842 33.5252 13.0254 33.4752C13.2087 33.4252 13.3837 33.3835 13.5504 33.3502L14.5004 33.1502Z" fill="url(#paint0_linear_55_2242)"/>
</g>
<defs>
<linearGradient id="paint0_linear_55_2242" x1="11.7004" y1="12.4222" x2="39.6143" y2="33.306" gradientUnits="userSpaceOnUse">
<stop offset="0.216302" stop-color="#222054"/>
<stop offset="0.593861" stop-color="#AB2638"/>
<stop offset="1" stop-color="#F0B73F"/>
</linearGradient>
</defs>
</svg>
