<svg width="40" height="40" viewBox="0 0 40 40" fill="none" xmlns="http://www.w3.org/2000/svg">
<g clip-path="url(#clip0_10_1212)">
<path fill-rule="evenodd" clip-rule="evenodd" d="M0 20C0 8.95429 8.95429 0 20 0C31.0456 0 40 8.95429 40 20C40 31.0456 31.0456 40 20 40C8.95429 40 0 31.0456 0 20ZM2.66667 20C2.66667 11.3091 9.06283 4.11219 17.4046 2.85968L18.6667 3.49075V4.50931L16.7371 5.47413C16.312 5.68667 16.0321 6.10947 16.0026 6.58384C15.9731 7.05821 16.1983 7.51245 16.5938 7.77608L20.5938 10.4427C20.8128 10.5888 21.0701 10.6667 21.3334 10.6667H22.6667C23.4031 10.6667 24 10.0697 24 9.33336V8.00003H25.3334V9.33336C25.3334 9.68699 25.4738 10.0261 25.7239 10.2762L26.6667 11.219V12.7811L26.1144 13.3334H24.3148L19.263 10.8075C18.8876 10.6198 18.4458 10.6198 18.0704 10.8075L15.6853 12H12C11.3882 12 10.8549 12.4164 10.7065 13.01L9.37317 18.3433C9.25957 18.7977 9.39272 19.2783 9.72389 19.6095L13.7239 23.6095C13.8252 23.7108 13.9422 23.7952 14.0704 23.8593L16 24.8241V28C16 28.3536 16.1405 28.6928 16.3906 28.9429L17.3334 29.8856V32C17.3334 32.2069 17.3815 32.4112 17.4741 32.5963L18.8075 35.2629C19.0333 35.7147 19.495 36 20 36H22.6667C23.1125 36 23.5288 35.7773 23.7761 35.4064L26.4428 31.4064C26.4734 31.3603 26.5012 31.3125 26.5259 31.2629L27.8592 28.5963C27.9517 28.4112 28 28.2069 28 28V25.7778L31.7333 20.8C32.0363 20.396 32.0851 19.8554 31.8592 19.4037L31.4907 18.6667H33.3333C34.0699 18.6667 34.6667 18.0697 34.6667 17.3334V16H36.8696C37.1728 17.2841 37.3333 18.6233 37.3333 20C37.3333 29.5731 29.5731 37.3333 20 37.3333C10.4271 37.3333 2.66667 29.5731 2.66667 20Z" fill="url(#paint0_linear_10_1212)"/>
</g>
<defs>
<linearGradient id="paint0_linear_10_1212" x1="4" y1="9.60004" x2="32" y2="36.8" gradientUnits="userSpaceOnUse">
<stop offset="0.216302" stop-color="#222054"/>
<stop offset="0.593861" stop-color="#AB2638"/>
<stop offset="1" stop-color="#F0B73F"/>
</linearGradient>
<clipPath id="clip0_10_1212">
<rect width="40" height="40" fill="white"/>
</clipPath>
</defs>
</svg>
