<svg width="49" height="48" viewBox="0 0 49 48" fill="none" xmlns="http://www.w3.org/2000/svg">
<mask id="mask0_10_1198" style="mask-type:alpha" maskUnits="userSpaceOnUse" x="0" y="0" width="49" height="48">
<rect x="0.333374" width="48" height="48" fill="#D9D9D9"/>
</mask>
<g mask="url(#mask0_10_1198)">
<path d="M2.33337 36C1.76671 36 1.29171 35.8083 0.908374 35.425C0.525041 35.0417 0.333374 34.5667 0.333374 34V32.85C0.333374 31.3833 1.06671 30.2083 2.53337 29.325C4.00004 28.4417 5.93337 28 8.33337 28C8.76671 28 9.17504 28.0167 9.55837 28.05C9.94171 28.0833 10.3167 28.1333 10.6834 28.2C10.2167 28.8667 9.87504 29.5833 9.65837 30.35C9.44171 31.1167 9.33337 31.9333 9.33337 32.8V36H2.33337ZM14.3334 36C13.7667 36 13.2917 35.8083 12.9084 35.425C12.525 35.0417 12.3334 34.5667 12.3334 34V32.8C12.3334 30.6333 13.4417 28.875 15.6584 27.525C17.875 26.175 20.7667 25.5 24.3334 25.5C27.9334 25.5 30.8334 26.175 33.0334 27.525C35.2334 28.875 36.3334 30.6333 36.3334 32.8V34C36.3334 34.5667 36.1417 35.0417 35.7584 35.425C35.375 35.8083 34.9 36 34.3334 36H14.3334ZM39.3334 36V32.8C39.3334 31.9333 39.2167 31.1167 38.9834 30.35C38.75 29.5833 38.4167 28.8667 37.9834 28.2C38.35 28.1333 38.725 28.0833 39.1084 28.05C39.4917 28.0167 39.9 28 40.3334 28C42.7334 28 44.6667 28.4417 46.1334 29.325C47.6 30.2083 48.3334 31.3833 48.3334 32.85V34C48.3334 34.5667 48.1417 35.0417 47.7584 35.425C47.375 35.8083 46.9 36 46.3334 36H39.3334ZM24.3334 29.5C22.4334 29.5 20.7334 29.7583 19.2334 30.275C17.7334 30.7917 16.85 31.3667 16.5834 32H32.0834C31.7834 31.3333 30.8917 30.75 29.4084 30.25C27.925 29.75 26.2334 29.5 24.3334 29.5ZM8.33337 26C7.23337 26 6.29171 25.6083 5.50837 24.825C4.72504 24.0417 4.33337 23.1 4.33337 22C4.33337 20.9 4.72504 19.9583 5.50837 19.175C6.29171 18.3917 7.23337 18 8.33337 18C9.43337 18 10.375 18.3917 11.1584 19.175C11.9417 19.9583 12.3334 20.9 12.3334 22C12.3334 23.1 11.9417 24.0417 11.1584 24.825C10.375 25.6083 9.43337 26 8.33337 26ZM40.3334 26C39.2334 26 38.2917 25.6083 37.5084 24.825C36.725 24.0417 36.3334 23.1 36.3334 22C36.3334 20.9 36.725 19.9583 37.5084 19.175C38.2917 18.3917 39.2334 18 40.3334 18C41.4334 18 42.375 18.3917 43.1584 19.175C43.9417 19.9583 44.3334 20.9 44.3334 22C44.3334 23.1 43.9417 24.0417 43.1584 24.825C42.375 25.6083 41.4334 26 40.3334 26ZM24.3334 24C22.6667 24 21.25 23.4167 20.0834 22.25C18.9167 21.0833 18.3334 19.6667 18.3334 18C18.3334 16.3333 18.9167 14.9167 20.0834 13.75C21.25 12.5833 22.6667 12 24.3334 12C26 12 27.4167 12.5833 28.5834 13.75C29.75 14.9167 30.3334 16.3333 30.3334 18C30.3334 19.6667 29.75 21.0833 28.5834 22.25C27.4167 23.4167 26 24 24.3334 24ZM24.3334 16C23.7667 16 23.2917 16.1917 22.9084 16.575C22.525 16.9583 22.3334 17.4333 22.3334 18C22.3334 18.5667 22.525 19.0417 22.9084 19.425C23.2917 19.8083 23.7667 20 24.3334 20C24.9 20 25.375 19.8083 25.7584 19.425C26.1417 19.0417 26.3334 18.5667 26.3334 18C26.3334 17.4333 26.1417 16.9583 25.7584 16.575C25.375 16.1917 24.9 16 24.3334 16Z" fill="url(#paint0_linear_10_1198)"/>
</g>
<defs>
<linearGradient id="paint0_linear_10_1198" x1="5.13337" y1="17.76" x2="18.8112" y2="44.3341" gradientUnits="userSpaceOnUse">
<stop offset="0.216302" stop-color="#222054"/>
<stop offset="0.593861" stop-color="#AB2638"/>
<stop offset="1" stop-color="#F0B73F"/>
</linearGradient>
</defs>
</svg>
