<svg width="49" height="48" viewBox="0 0 49 48" fill="none" xmlns="http://www.w3.org/2000/svg">
<mask id="mask0_10_1205" style="mask-type:alpha" maskUnits="userSpaceOnUse" x="0" y="0" width="49" height="48">
<rect x="0.666748" width="48" height="48" fill="#D9D9D9"/>
</mask>
<g mask="url(#mask0_10_1205)">
<path d="M24.6667 42C22.2001 42 19.8751 41.525 17.6917 40.575C15.5084 39.625 13.6001 38.3333 11.9667 36.7C10.3334 35.0667 9.04175 33.1583 8.09175 30.975C7.14175 28.7917 6.66675 26.4667 6.66675 24C6.66675 21.4 7.16675 18.9667 8.16675 16.7C9.16675 14.4333 10.5667 12.4833 12.3667 10.85C12.7667 10.4833 13.2417 10.3083 13.7917 10.325C14.3417 10.3417 14.8001 10.5333 15.1667 10.9L26.0667 21.8C26.4334 22.1667 26.6167 22.6333 26.6167 23.2C26.6167 23.7667 26.4334 24.2333 26.0667 24.6C25.7001 24.9667 25.2334 25.15 24.6667 25.15C24.1001 25.15 23.6334 24.9667 23.2667 24.6L13.8667 15.2C12.8667 16.4 12.0834 17.7417 11.5167 19.225C10.9501 20.7083 10.6667 22.3 10.6667 24C10.6667 27.8667 12.0334 31.1667 14.7667 33.9C17.5001 36.6333 20.8001 38 24.6667 38C28.5334 38 31.8334 36.6333 34.5667 33.9C37.3001 31.1667 38.6667 27.8667 38.6667 24C38.6667 20.4333 37.5251 17.3583 35.2417 14.775C32.9584 12.1917 30.1001 10.6667 26.6667 10.2V12C26.6667 12.5667 26.4751 13.0417 26.0917 13.425C25.7084 13.8083 25.2334 14 24.6667 14C24.1001 14 23.6251 13.8083 23.2417 13.425C22.8584 13.0417 22.6667 12.5667 22.6667 12V8C22.6667 7.43333 22.8584 6.95833 23.2417 6.575C23.6251 6.19167 24.1001 6 24.6667 6C27.1334 6 29.4584 6.475 31.6417 7.425C33.8251 8.375 35.7334 9.66667 37.3667 11.3C39.0001 12.9333 40.2917 14.8417 41.2417 17.025C42.1917 19.2083 42.6667 21.5333 42.6667 24C42.6667 26.4667 42.1917 28.7917 41.2417 30.975C40.2917 33.1583 39.0001 35.0667 37.3667 36.7C35.7334 38.3333 33.8251 39.625 31.6417 40.575C29.4584 41.525 27.1334 42 24.6667 42ZM24.6667 36C24.1001 36 23.6251 35.8083 23.2417 35.425C22.8584 35.0417 22.6667 34.5667 22.6667 34C22.6667 33.4333 22.8584 32.9583 23.2417 32.575C23.6251 32.1917 24.1001 32 24.6667 32C25.2334 32 25.7084 32.1917 26.0917 32.575C26.4751 32.9583 26.6667 33.4333 26.6667 34C26.6667 34.5667 26.4751 35.0417 26.0917 35.425C25.7084 35.8083 25.2334 36 24.6667 36ZM34.6667 26C34.1001 26 33.6251 25.8083 33.2417 25.425C32.8584 25.0417 32.6667 24.5667 32.6667 24C32.6667 23.4333 32.8584 22.9583 33.2417 22.575C33.6251 22.1917 34.1001 22 34.6667 22C35.2334 22 35.7084 22.1917 36.0917 22.575C36.4751 22.9583 36.6667 23.4333 36.6667 24C36.6667 24.5667 36.4751 25.0417 36.0917 25.425C35.7084 25.8083 35.2334 26 34.6667 26ZM14.6667 26C14.1001 26 13.6251 25.8083 13.2417 25.425C12.8584 25.0417 12.6667 24.5667 12.6667 24C12.6667 23.4333 12.8584 22.9583 13.2417 22.575C13.6251 22.1917 14.1001 22 14.6667 22C15.2334 22 15.7084 22.1917 16.0917 22.575C16.4751 22.9583 16.6667 23.4333 16.6667 24C16.6667 24.5667 16.4751 25.0417 16.0917 25.425C15.7084 25.8083 15.2334 26 14.6667 26Z" fill="url(#paint0_linear_10_1205)"/>
</g>
<defs>
<linearGradient id="paint0_linear_10_1205" x1="10.2667" y1="14.64" x2="35.4668" y2="39.12" gradientUnits="userSpaceOnUse">
<stop offset="0.216302" stop-color="#222054"/>
<stop offset="0.593861" stop-color="#AB2638"/>
<stop offset="1" stop-color="#F0B73F"/>
</linearGradient>
</defs>
</svg>
