<svg width="24" height="25" viewBox="0 0 24 25" fill="none" xmlns="http://www.w3.org/2000/svg">
<mask id="mask0_1676_1475" style="mask-type:alpha" maskUnits="userSpaceOnUse" x="0" y="0" width="24" height="25">
<rect y="0.108398" width="24" height="24" fill="#D9D9D9"/>
</mask>
<g mask="url(#mask0_1676_1475)">
<path d="M16.15 13.1079H5C4.71667 13.1079 4.47917 13.0121 4.2875 12.8204C4.09583 12.6288 4 12.3913 4 12.1079C4 11.8246 4.09583 11.5871 4.2875 11.3954C4.47917 11.2038 4.71667 11.1079 5 11.1079H16.15L13.3 8.25792C13.1 8.05792 13.0042 7.82459 13.0125 7.55792C13.0208 7.29126 13.1167 7.05792 13.3 6.85792C13.5 6.65792 13.7375 6.55376 14.0125 6.54542C14.2875 6.53709 14.525 6.63292 14.725 6.83292L19.3 11.4079C19.4 11.5079 19.4708 11.6163 19.5125 11.7329C19.5542 11.8496 19.575 11.9746 19.575 12.1079C19.575 12.2413 19.5542 12.3663 19.5125 12.4829C19.4708 12.5996 19.4 12.7079 19.3 12.8079L14.725 17.3829C14.525 17.5829 14.2875 17.6788 14.0125 17.6704C13.7375 17.6621 13.5 17.5579 13.3 17.3579C13.1167 17.1579 13.0208 16.9246 13.0125 16.6579C13.0042 16.3913 13.1 16.1579 13.3 15.9579L16.15 13.1079Z" fill="#AB2638"/>
</g>
</svg>
