<svg width="104" height="40" viewBox="0 0 104 40" fill="none" xmlns="http://www.w3.org/2000/svg">
<g clip-path="url(#clip0_1467_602)">
<path d="M19.8475 39.952C8.90368 39.952 0 31.0016 0 20.0004C0 8.9992 8.90368 0.0488281 19.8475 0.0488281C30.7913 0.0488281 39.695 8.9992 39.695 20.0004C39.695 31.0016 30.7913 39.952 19.8475 39.952ZM19.8475 2.52973C10.2647 2.52973 2.46797 10.3674 2.46797 20.0004C2.46797 29.6334 10.2647 37.4711 19.8475 37.4711C29.4303 37.4711 37.227 29.6334 37.227 20.0004C37.227 10.3674 29.4303 2.52973 19.8475 2.52973Z" fill="url(#paint0_linear_1467_602)"/>
<path d="M29.2935 24.3987H34.1129L33.1079 23.053L25.1423 12.3756L24.1946 11.1078L23.1798 9.74837L22.3154 8.58984H22.2708H20.5401L18.6717 8.58398L7.84334 23.053L6.83539 24.3987L5.61693 26.0274L5.57812 26.079H11.2863L9.121 28.989H11.1447L13.3526 26.0245L13.3594 26.0146L14.5653 24.3958L15.5674 23.0501L19.9425 17.1804L20.9515 18.5252L24.3469 23.053H17.6647L16.6879 24.3987L15.5111 26.0216L17.8859 26.0274H17.949L26.583 26.0478L28.8229 29.0329L32.8615 29.0417L30.5653 26.0566L29.2935 24.3987ZM22.8053 15.9653L21.8091 14.6692L20.7798 13.3283L18.923 15.8229L13.5398 23.053L12.5697 24.3568H10.4753L11.4531 23.053L17.7589 14.6331L19.6079 12.1571L21.4055 9.74638L22.2902 10.9362L23.303 12.3015L24.2625 13.5896L31.3016 23.0569H28.2555L22.8053 15.9653Z" fill="#202054"/>
<path d="M50.8648 1.81055H53.4122L60.5421 18.4463H57.1771L55.6286 14.6419H48.4574L46.96 18.4483H43.6641L50.8648 1.81055ZM54.608 12.1089L52.0607 5.3417L49.4621 12.103L54.608 12.1089Z" fill="#202054"/>
<path d="M64.5624 12.3864L60.6813 7.16992H64.0994L66.3434 10.5526L68.7745 7.16992H71.9798L68.1382 12.3864L72.6497 18.4486H69.2375L66.3158 14.4065L63.3606 18.4486H60.0508L64.5624 12.3864Z" fill="#202054"/>
<path d="M73.3985 3.33872C73.3973 3.1167 73.4412 2.89678 73.5276 2.69245C73.614 2.48811 73.741 2.30367 73.9007 2.15045C74.0677 1.98335 74.2669 1.85235 74.4861 1.76551C74.7053 1.67865 74.9397 1.63779 75.1752 1.64544C75.6532 1.63162 76.1179 1.80485 76.4713 2.12866C76.6371 2.2831 76.7693 2.4703 76.8598 2.67852C76.9502 2.88675 76.9968 3.11151 76.9968 3.33872C76.9968 3.56593 76.9502 3.79069 76.8598 3.99892C76.7693 4.20715 76.6371 4.39435 76.4713 4.54877C76.1172 4.87115 75.6528 5.04355 75.1752 5.03003C74.9397 5.03766 74.7053 4.99681 74.4861 4.90995C74.2669 4.82311 74.0677 4.69211 73.9007 4.52501C73.741 4.37223 73.6139 4.18815 73.5275 3.98413C73.4411 3.78011 73.3972 3.56045 73.3985 3.33872ZM73.7924 7.16892H76.5954V18.4575H73.7964L73.7924 7.16892Z" fill="#202054"/>
<path d="M86.3712 16.8959H86.3023C85.9347 17.504 85.3976 17.9902 84.7576 18.2941C84.1119 18.5882 83.4098 18.7363 82.7009 18.7278C82.1912 18.7287 81.6839 18.6581 81.1938 18.5179C80.7229 18.386 80.2792 18.1707 79.8836 17.8822C79.503 17.6016 79.1883 17.2406 78.9616 16.8245C78.7195 16.3702 78.5987 15.8605 78.6109 15.3452C78.5949 14.8056 78.707 14.27 78.938 13.7826C79.1475 13.3617 79.4468 12.9924 79.8146 12.7013C80.199 12.4017 80.6295 12.1675 81.0893 12.0081C81.579 11.8315 82.0834 11.699 82.5964 11.612C83.1182 11.5266 83.6445 11.4717 84.1725 11.4476C84.6979 11.4239 85.1963 11.412 85.6679 11.412H86.3693V11.107C86.3693 10.402 86.1275 9.8738 85.6443 9.52261C85.1013 9.15189 84.454 8.9665 83.7982 8.99386C83.2294 8.99006 82.6653 9.0977 82.1374 9.3107C81.644 9.51007 81.1921 9.80098 80.8056 10.1683L79.3339 8.68887C79.9406 8.05677 80.6901 7.5812 81.5188 7.30255C82.3508 7.0199 83.2234 6.87672 84.1016 6.87873C84.7821 6.86277 85.4608 6.95432 86.1131 7.15005C86.6014 7.3006 87.06 7.53512 87.4686 7.84321C87.8105 8.10529 88.0933 8.43741 88.298 8.8176C88.4867 9.16971 88.6284 9.54525 88.7196 9.93461C88.8022 10.2937 88.8531 10.6596 88.8712 11.0278C88.8851 11.3803 88.8949 11.6893 88.8949 11.9546V18.4406H86.3712V16.8959ZM86.2077 13.3944H85.6167C85.2226 13.3944 84.7912 13.4103 84.3085 13.442C83.8465 13.4698 83.3884 13.5442 82.9412 13.6638C82.5488 13.7644 82.1794 13.9406 81.8537 14.1826C81.7085 14.2929 81.5922 14.4372 81.515 14.6028C81.4378 14.7684 81.4019 14.9505 81.4105 15.1333C81.4015 15.369 81.4625 15.602 81.5858 15.8026C81.7048 15.9853 81.8596 16.1417 82.0409 16.2622C82.2335 16.3888 82.4469 16.48 82.6713 16.5314C82.9011 16.5863 83.1365 16.6143 83.3727 16.6146C84.3394 16.6146 85.0525 16.3836 85.5122 15.9215C85.9719 15.4593 86.2018 14.8283 86.2018 14.0282L86.2077 13.3944Z" fill="#202054"/>
<path d="M50.8648 21.1484H53.4122L60.5421 37.7842H57.1771L55.6286 33.9798H48.4574L46.96 37.7862H43.6641L50.8648 21.1484ZM54.608 31.4468L52.0607 24.6775L49.4621 31.4428L54.608 31.4468Z" fill="#202054"/>
<path d="M62.6683 28.9054H60.3555V26.509H62.6703V24.9108C62.664 24.1984 62.7187 23.4867 62.8338 22.7838C62.9228 22.2014 63.1337 21.6445 63.4525 21.1499C63.7689 20.6858 64.2113 20.3228 64.7271 20.1043C65.4043 19.8386 66.1285 19.7152 66.8548 19.7418C67.4499 19.7373 68.0438 19.7924 68.628 19.9062L68.4428 22.3026C68.2457 22.255 68.0488 22.2154 67.8517 22.1857C67.6565 22.1532 67.4587 22.1373 67.2607 22.1382C66.9388 22.1232 66.6182 22.1877 66.3269 22.3263C66.102 22.4422 65.9122 22.6166 65.7772 22.8313C65.6389 23.0566 65.5509 23.3093 65.5191 23.572C65.4795 23.8674 65.4603 24.1652 65.462 24.4632V26.509H68.0566V28.9054H65.4778V37.7877H62.6683V28.9054Z" fill="#202054"/>
<path d="M69.418 26.5085H72.2234V28.291H72.2687C72.5548 27.661 73.0186 27.1294 73.6026 26.7621C74.1999 26.3957 74.8888 26.2082 75.5884 26.2214C75.757 26.2212 75.9252 26.2371 76.0908 26.2689C76.2543 26.3006 76.4218 26.3402 76.5932 26.3858V29.1247C76.3607 29.0614 76.1302 29.0118 75.9037 28.9723C75.6838 28.9331 75.461 28.9132 75.2377 28.9128C74.6891 28.8874 74.1441 29.0134 73.6616 29.2773C73.302 29.486 72.9915 29.7704 72.7515 30.111C72.5539 30.3954 72.4109 30.7145 72.3299 31.0517C72.2711 31.2825 72.2361 31.5187 72.2254 31.7567V37.7952H69.418V26.5085Z" fill="#202054"/>
<path d="M77.6915 22.6786C77.6898 22.4565 77.7335 22.2364 77.8199 22.0321C77.9063 21.8276 78.0336 21.6433 78.1937 21.4903C78.3603 21.3226 78.5594 21.1911 78.7786 21.1038C78.9978 21.0166 79.2325 20.9756 79.4682 20.9833C79.9459 20.9705 80.4102 21.1436 80.7642 21.4665C80.93 21.621 81.0622 21.8082 81.1528 22.0164C81.2432 22.2246 81.2898 22.4494 81.2898 22.6766C81.2898 22.9038 81.2432 23.1286 81.1528 23.3368C81.0622 23.5451 80.93 23.7323 80.7642 23.8867C80.4101 24.2091 79.9458 24.3814 79.4682 24.3679C79.2327 24.3755 78.9982 24.3347 78.779 24.2479C78.5598 24.161 78.3607 24.03 78.1937 23.8629C78.0341 23.7103 77.9073 23.5266 77.8208 23.323C77.7345 23.1193 77.6905 22.9 77.6915 22.6786ZM78.0854 26.5088H80.8904V37.7973H78.0953L78.0854 26.5088Z" fill="#202054"/>
<path d="M91.3308 29.8906C91.0288 29.5677 90.6815 29.2908 90.3003 29.0687C89.9675 28.872 89.589 28.7668 89.203 28.7637C88.7499 28.7538 88.2999 28.8409 87.8828 29.0192C87.4656 29.1973 87.091 29.4627 86.7837 29.7975C86.4953 30.1102 86.2722 30.4779 86.1276 30.8788C85.8334 31.6986 85.8334 32.596 86.1276 33.4158C86.2722 33.8167 86.4953 34.1844 86.7837 34.4972C87.091 34.832 87.4656 35.0973 87.8828 35.2755C88.2999 35.4537 88.7499 35.5408 89.203 35.5309C89.6232 35.5347 90.0389 35.4426 90.4186 35.2616C90.7954 35.0778 91.1237 34.8063 91.376 34.4694L93.248 36.4914C92.9595 36.7784 92.6322 37.0231 92.2768 37.2183C91.9223 37.4163 91.5506 37.5821 91.1671 37.7133C90.8162 37.832 90.4563 37.9221 90.0915 37.9827C89.7979 38.0337 89.5009 38.0615 89.203 38.0659C88.3894 38.0703 87.5818 37.9267 86.8191 37.6421C86.099 37.3817 85.4398 36.9752 84.8826 36.4478C84.3254 35.9203 83.8822 35.2833 83.5803 34.5763C82.942 33.0178 82.942 31.2689 83.5803 29.7103C83.8822 29.0033 84.3254 28.3663 84.8826 27.839C85.4398 27.3115 86.099 26.905 86.8191 26.6446C87.5818 26.36 88.3894 26.2164 89.203 26.2208C89.9443 26.2248 90.6788 26.3643 91.3697 26.6327C92.0986 26.9102 92.7515 27.3574 93.2752 27.9379L91.3308 29.8906Z" fill="#202054"/>
<path d="M101.473 36.2356H101.404C101.037 36.8437 100.499 37.3299 99.8592 37.6338C99.2135 37.9286 98.5117 38.0773 97.8027 38.0695C97.2926 38.0698 96.7853 37.9985 96.2951 37.8576C95.824 37.7266 95.3808 37.5112 94.9856 37.2219C94.604 36.942 94.2893 36.5808 94.0632 36.1643C93.8209 35.71 93.7006 35.2002 93.7123 34.685C93.697 34.1454 93.8091 33.6098 94.0397 33.1223C94.2495 32.7018 94.5489 32.3327 94.916 32.0411C95.3004 31.7414 95.7317 31.5072 96.1911 31.3479C96.6804 31.1713 97.185 31.0388 97.6978 30.9518C98.2196 30.8663 98.7459 30.8114 99.2741 30.7874C99.7995 30.7636 100.298 30.7518 100.77 30.7518H101.471V30.4468C101.471 29.7417 101.229 29.2136 100.746 28.8624C100.203 28.4917 99.5562 28.3062 98.8997 28.3336C98.3308 28.3296 97.7674 28.4372 97.2393 28.6505C96.7455 28.8499 96.2933 29.1415 95.9072 29.5101L94.4394 28.0346C95.0462 27.4025 95.7959 26.9269 96.6243 26.6482C97.4563 26.3665 98.329 26.2234 99.2071 26.2244C99.8881 26.2085 100.566 26.3001 101.218 26.4958C101.707 26.6463 102.165 26.8808 102.574 27.1889C102.916 27.451 103.199 27.7832 103.403 28.1633C103.592 28.5154 103.734 28.891 103.826 29.2802C103.908 29.6394 103.959 30.0053 103.977 30.3735C103.991 30.726 104 31.035 104 31.3003V37.7863H101.473V36.2356ZM101.31 32.7341H100.718C100.324 32.7341 99.8926 32.7501 99.4106 32.7817C98.9485 32.8092 98.49 32.8842 98.0433 33.0055C97.6508 33.1047 97.2809 33.2802 96.9553 33.5224C96.8106 33.6328 96.694 33.7771 96.6171 33.9427C96.5393 34.1082 96.5041 34.2903 96.5122 34.4731C96.5031 34.7087 96.5646 34.9417 96.6876 35.1424C96.8061 35.3252 96.9617 35.4815 97.1425 35.6019C97.3351 35.7285 97.5486 35.8197 97.7728 35.8712C98.0026 35.9261 98.2386 35.954 98.4746 35.9544C99.4423 35.9544 100.156 35.7233 100.614 35.2612C101.072 34.7991 101.303 34.1681 101.303 33.368L101.31 32.7341Z" fill="#202054"/>
</g>
<defs>
<linearGradient id="paint0_linear_1467_602" x1="3.9695" y1="9.62562" x2="31.8971" y2="36.6137" gradientUnits="userSpaceOnUse">
<stop offset="0.216302" stop-color="#202054"/>
<stop offset="0.593861" stop-color="#AB2638"/>
<stop offset="1" stop-color="#F0B73F"/>
</linearGradient>
<clipPath id="clip0_1467_602">
<rect width="104" height="40" fill="white"/>
</clipPath>
</defs>
</svg>
