<svg width="148" height="62" viewBox="0 0 148 62" fill="none" xmlns="http://www.w3.org/2000/svg">
<path d="M31.005 62C13.909 62 0 48.0933 0 31.0001C0 13.9067 13.909 0 31.005 0C48.1011 0 62.0101 13.9067 62.0101 31.0001C62.0101 48.0933 48.1011 62 31.005 62ZM31.005 3.85474C16.0352 3.85474 3.85537 16.0327 3.85537 31.0001C3.85537 45.9674 16.0352 58.1453 31.005 58.1453C45.9749 58.1453 58.1547 45.9674 58.1547 31.0001C58.1547 16.0327 45.9749 3.85474 31.005 3.85474Z" fill="#F7F7FF"/>
<path d="M45.7621 37.8351H53.2909L51.7209 35.7441L39.2774 19.1539L37.7968 17.1841L36.2116 15.0719L34.8613 13.2718H34.7916H32.0879L29.1692 13.2627L12.2535 35.7441L10.6789 37.8351L8.77546 40.3656L8.71484 40.4458H17.6319L14.2494 44.9672H17.4107L20.8599 40.361L20.8705 40.3458L22.7542 37.8305L24.3197 35.7396L31.1544 26.6194L32.7306 28.709L38.0347 35.7441H27.5961L26.0701 37.8351L24.2318 40.3565L27.9417 40.3656H28.0401L41.5278 40.3973L45.0271 45.0355L51.3359 45.0492L47.7488 40.411L45.7621 37.8351ZM35.6266 24.7315L34.0703 22.7177L32.4623 20.6342L29.5617 24.5103L21.1523 35.7441L19.6369 37.7699H16.365L17.8926 35.7441L27.7432 22.6616L30.6317 18.8145L33.4398 15.0688L34.8219 16.9175L36.404 19.0388L37.9029 21.0403L48.8991 35.7502H44.1406L35.6266 24.7315Z" fill="#F7F7FF"/>
<path d="M78.5337 52.7333C78.5337 52.8912 78.5077 53.0386 78.4556 53.1758C78.4036 53.3129 78.3321 53.4384 78.241 53.5523C78.15 53.6635 78.0433 53.7631 77.921 53.8511C77.8014 53.9391 77.6713 54.0128 77.5308 54.0723C77.3929 54.1319 77.2499 54.1771 77.1016 54.2082C76.9533 54.2366 76.8076 54.2509 76.6645 54.2509H73.3594V48.6619H76.3797C76.5124 48.6619 76.6515 48.6723 76.7972 48.693C76.9429 48.7111 77.0847 48.7409 77.2226 48.7823C77.363 48.8237 77.4957 48.878 77.6206 48.9453C77.748 49.0125 77.8586 49.0953 77.9523 49.1937C78.0485 49.2894 78.124 49.4007 78.1786 49.5274C78.2358 49.6542 78.2644 49.7991 78.2644 49.9621C78.2644 50.1174 78.2332 50.2584 78.1708 50.3852C78.1084 50.512 78.0238 50.6258 77.9171 50.7267C77.8131 50.8251 77.6921 50.913 77.5542 50.9907C77.419 51.0657 77.2759 51.1317 77.125 51.1886C77.3149 51.2404 77.4944 51.3089 77.6635 51.3943C77.8352 51.4797 77.9848 51.5845 78.1123 51.7087C78.2423 51.8329 78.3451 51.9804 78.4205 52.1511C78.496 52.3193 78.5337 52.5134 78.5337 52.7333ZM76.6919 50.098C76.6919 49.7823 76.6073 49.552 76.4382 49.4071C76.2717 49.2622 76.0337 49.1898 75.7241 49.1898H74.9085V51.0023H75.5914C75.7319 51.0023 75.8685 50.9855 76.0012 50.9518C76.1338 50.9156 76.2509 50.8613 76.3524 50.7888C76.4564 50.7138 76.5384 50.6194 76.5982 50.5055C76.6606 50.3917 76.6919 50.2558 76.6919 50.098ZM76.965 52.6363C76.965 52.4836 76.9455 52.3413 76.9065 52.2094C76.8675 52.0748 76.8076 51.9597 76.727 51.8639C76.6463 51.7656 76.5449 51.6893 76.4226 51.6349C76.3029 51.578 76.1612 51.5496 75.9973 51.5496H74.9085V53.7075H75.8607C76.0194 53.7075 76.1664 53.6816 76.3016 53.6299C76.4369 53.5781 76.554 53.5057 76.6528 53.4125C76.7517 53.3194 76.8284 53.2068 76.8831 53.0749C76.9377 52.9429 76.965 52.7967 76.965 52.6363Z" fill="#F7F7FF"/>
<path d="M83.3412 49.7681L81.7023 53.7114C81.515 54.1616 81.3056 54.6067 81.074 55.0465C80.8451 55.489 80.5967 55.9133 80.3287 56.3196L79.8136 56.0091C79.8786 55.8926 79.9554 55.7581 80.0438 55.6054C80.1323 55.4528 80.2194 55.2949 80.3053 55.1319C80.3911 54.9689 80.4705 54.8072 80.5433 54.6468C80.6162 54.4889 80.6721 54.344 80.7111 54.2121L78.7405 49.7681H80.0595L81.3979 52.7993L82.4281 49.7681H83.3412Z" fill="#F7F7FF"/>
<path d="M91.5944 51.5767V51.6505C91.5891 51.8678 91.5657 52.0929 91.5241 52.3258C91.4851 52.5587 91.4292 52.7915 91.3563 53.0244C91.2835 53.2573 91.1963 53.4876 91.0949 53.7153C90.9934 53.943 90.8789 54.1603 90.7515 54.3673C90.6266 54.5769 90.4913 54.7723 90.3456 54.9534C90.2 55.1371 90.0465 55.2988 89.8852 55.4385L89.3038 55.1047C89.3948 54.9521 89.4768 54.7852 89.5496 54.6041C89.625 54.4255 89.6927 54.2379 89.7525 54.0413C89.8123 53.8446 89.8631 53.6428 89.9047 53.4358C89.9489 53.2288 89.9853 53.0231 90.014 52.8187C90.0426 52.6143 90.0634 52.4138 90.0764 52.2171C90.092 52.0179 90.0998 51.829 90.0998 51.6505C90.0998 51.5107 90.0985 51.3529 90.0959 51.177C90.0959 50.9984 90.0855 50.8173 90.0647 50.6336C90.0465 50.4499 90.0153 50.2713 89.971 50.098C89.9268 49.922 89.8605 49.7655 89.772 49.6284C89.6862 49.4912 89.5743 49.3813 89.4364 49.2985C89.3012 49.2157 89.1321 49.1743 88.9291 49.1743C88.7496 49.1743 88.5949 49.2053 88.4648 49.2674C88.3373 49.3269 88.2281 49.4084 88.137 49.5119C88.0486 49.6128 87.977 49.7306 87.9224 49.8651C87.8704 49.9997 87.8287 50.142 87.7975 50.292C87.7689 50.4395 87.7494 50.5896 87.739 50.7423C87.7312 50.8923 87.7273 51.0346 87.7273 51.1692V52.2521H89.4091V52.8925H87.7273V54.2509H86.1781V51.4098C86.1781 51.0036 86.2431 50.6258 86.3732 50.2765C86.5033 49.9272 86.6867 49.6245 86.9234 49.3683C87.1628 49.1096 87.4489 48.9077 87.7819 48.7628C88.1175 48.6154 88.4908 48.5416 88.9018 48.5416C89.1802 48.5416 89.4403 48.5817 89.6823 48.6619C89.9268 48.7396 90.1492 48.8482 90.3495 48.988C90.5499 49.1251 90.7281 49.2894 90.8842 49.4809C91.0428 49.6698 91.1742 49.8768 91.2783 50.1019C91.3849 50.327 91.4656 50.565 91.5202 50.816C91.5748 51.067 91.5996 51.3206 91.5944 51.5767Z" fill="#F7F7FF"/>
<path d="M96.316 54.2509H94.9971L93.8927 52.679L92.765 54.2509H91.8519L93.5494 52.1861L91.8519 49.7681H93.1708L94.24 51.2895L95.4029 49.7681H96.316L94.5834 51.7785L96.316 54.2509Z" fill="#F7F7FF"/>
<path d="M98.3139 48.6852C98.3139 48.7835 98.2944 48.8767 98.2554 48.9647C98.219 49.0526 98.1683 49.129 98.1032 49.1937C98.0382 49.2583 97.9614 49.3101 97.873 49.3489C97.7845 49.3851 97.6909 49.4032 97.592 49.4032C97.4932 49.4032 97.3995 49.3851 97.3111 49.3489C97.2252 49.3101 97.1498 49.2583 97.0847 49.1937C97.0197 49.129 96.9677 49.0526 96.9287 48.9647C96.8922 48.8767 96.874 48.7835 96.874 48.6852C96.874 48.5869 96.8922 48.495 96.9287 48.4097C96.9677 48.3217 97.0197 48.2454 97.0847 48.1807C97.1498 48.116 97.2252 48.0655 97.3111 48.0293C97.3995 47.9905 97.4932 47.9711 97.592 47.9711C97.6909 47.9711 97.7845 47.9905 97.873 48.0293C97.9614 48.0655 98.0382 48.116 98.1032 48.1807C98.1683 48.2454 98.219 48.3217 98.2554 48.4097C98.2944 48.495 98.3139 48.5869 98.3139 48.6852ZM98.2554 54.2509H96.9326V49.772H98.2554V54.2509Z" fill="#F7F7FF"/>
<path d="M103.902 54.2509H102.583V53.7153C102.427 53.9274 102.238 54.0853 102.017 54.1888C101.799 54.2897 101.558 54.3401 101.295 54.3401C100.952 54.3401 100.645 54.2793 100.374 54.1577C100.104 54.0361 99.8748 53.8705 99.6875 53.6609C99.5002 53.4488 99.3571 53.2004 99.2583 52.9157C99.1594 52.6311 99.11 52.3258 99.11 51.9998C99.11 51.6738 99.1594 51.3684 99.2583 51.0838C99.3571 50.7992 99.5002 50.5521 99.6875 50.3425C99.8748 50.1303 100.104 49.9634 100.374 49.8418C100.645 49.7202 100.952 49.6594 101.295 49.6594C101.47 49.6594 101.635 49.6853 101.791 49.737C101.949 49.7888 102.094 49.8625 102.224 49.9583C102.357 50.0514 102.472 50.1653 102.571 50.2998C102.673 50.4318 102.752 50.5793 102.809 50.7423L103.395 49.7681H103.902V54.2509ZM102.575 51.9998C102.575 51.8833 102.569 51.7604 102.556 51.6311C102.545 51.5017 102.526 51.3736 102.497 51.2468C102.468 51.12 102.428 50.9997 102.376 50.8859C102.327 50.7694 102.262 50.6672 102.181 50.5793C102.103 50.4887 102.008 50.4175 101.896 50.3658C101.784 50.314 101.654 50.2882 101.506 50.2882C101.358 50.2882 101.229 50.3153 101.12 50.3697C101.01 50.4214 100.917 50.4926 100.839 50.5831C100.761 50.6711 100.696 50.7733 100.644 50.8897C100.594 51.0062 100.555 51.1278 100.526 51.2546C100.498 51.3814 100.477 51.5094 100.464 51.6388C100.454 51.7656 100.448 51.8859 100.448 51.9998C100.448 52.1136 100.454 52.2352 100.464 52.3646C100.477 52.494 100.498 52.6221 100.526 52.7488C100.555 52.8756 100.594 52.9972 100.644 53.1137C100.696 53.2301 100.761 53.3336 100.839 53.4242C100.917 53.5122 101.01 53.5833 101.12 53.6376C101.229 53.6894 101.358 53.7153 101.506 53.7153C101.641 53.7153 101.761 53.6881 101.865 53.6338C101.972 53.5768 102.064 53.5018 102.142 53.4087C102.223 53.3155 102.29 53.2094 102.345 53.0904C102.4 52.9714 102.444 52.8485 102.478 52.7217C102.511 52.5949 102.536 52.4694 102.552 52.3452C102.567 52.2184 102.575 52.1033 102.575 51.9998Z" fill="#F7F7FF"/>
<path d="M112.705 51.5767V51.6505C112.7 51.8678 112.677 52.0929 112.635 52.3258C112.596 52.5587 112.54 52.7915 112.467 53.0244C112.394 53.2573 112.307 53.4876 112.206 53.7153C112.104 53.943 111.99 54.1603 111.862 54.3673C111.738 54.5769 111.602 54.7723 111.457 54.9534C111.311 55.1371 111.157 55.2988 110.996 55.4385L110.415 55.1047C110.506 54.9521 110.588 54.7852 110.66 54.6041C110.736 54.4255 110.804 54.2379 110.863 54.0413C110.923 53.8446 110.974 53.6428 111.016 53.4358C111.06 53.2288 111.096 53.0231 111.125 52.8187C111.153 52.6143 111.174 52.4138 111.187 52.2171C111.203 52.0179 111.211 51.829 111.211 51.6505C111.211 51.5107 111.209 51.3529 111.207 51.177C111.207 50.9984 111.196 50.8173 111.176 50.6336C111.157 50.4499 111.126 50.2713 111.082 50.098C111.038 49.922 110.971 49.7655 110.883 49.6284C110.797 49.4912 110.685 49.3813 110.547 49.2985C110.412 49.2157 110.243 49.1743 110.04 49.1743C109.861 49.1743 109.706 49.2053 109.576 49.2674C109.448 49.3269 109.339 49.4084 109.248 49.5119C109.159 49.6128 109.088 49.7306 109.033 49.8651C108.981 49.9997 108.94 50.142 108.908 50.292C108.88 50.4395 108.86 50.5896 108.85 50.7423C108.842 50.8923 108.838 51.0346 108.838 51.1692V52.2521H110.52V52.8925H108.838V54.2509H107.289V51.4098C107.289 51.0036 107.354 50.6258 107.484 50.2765C107.614 49.9272 107.798 49.6245 108.034 49.3683C108.274 49.1096 108.56 48.9077 108.893 48.7628C109.228 48.6154 109.602 48.5416 110.013 48.5416C110.291 48.5416 110.551 48.5817 110.793 48.6619C111.038 48.7396 111.26 48.8482 111.46 48.988C111.661 49.1251 111.839 49.2894 111.995 49.4809C112.154 49.6698 112.285 49.8768 112.389 50.1019C112.496 50.327 112.576 50.565 112.631 50.816C112.686 51.067 112.71 51.3206 112.705 51.5767Z" fill="#F7F7FF"/>
<path d="M117.786 47.9245L117.041 49.151C117.033 49.0526 117.015 48.9401 116.986 48.8133C116.957 48.6839 116.909 48.5623 116.842 48.4485C116.777 48.3346 116.685 48.2389 116.568 48.1613C116.454 48.081 116.307 48.0409 116.127 48.0409C115.943 48.0409 115.794 48.0772 115.683 48.1496C115.571 48.2221 115.485 48.3307 115.425 48.4756C115.365 48.6205 115.325 48.8004 115.304 49.0151C115.283 49.2299 115.273 49.4796 115.273 49.7642H116.639V50.2843H115.273V54.2509H113.95V50.2843H113.131V49.7642H113.95C113.95 49.3528 113.994 48.9996 114.083 48.7046C114.171 48.4097 114.305 48.1677 114.485 47.9788C114.664 47.7874 114.889 47.6476 115.16 47.5597C115.433 47.4691 115.752 47.4238 116.116 47.4238C116.334 47.4238 116.529 47.4394 116.701 47.4704C116.875 47.4989 117.029 47.5377 117.162 47.5868C117.297 47.6334 117.415 47.6865 117.517 47.746C117.618 47.8055 117.708 47.865 117.786 47.9245Z" fill="#F7F7FF"/>
<path d="M121.146 50.164L120.404 51.3865C120.373 51.283 120.333 51.1666 120.283 51.0372C120.234 50.9079 120.173 50.7875 120.1 50.6763C120.027 50.5624 119.94 50.468 119.838 50.393C119.737 50.3153 119.62 50.2765 119.487 50.2765C119.365 50.2765 119.258 50.3076 119.167 50.3697C119.079 50.4318 119.003 50.5133 118.941 50.6142C118.879 50.7125 118.826 50.8251 118.785 50.9518C118.746 51.076 118.715 51.2028 118.691 51.3322C118.67 51.459 118.656 51.5819 118.648 51.7009C118.64 51.8174 118.637 51.9183 118.637 52.0037V54.2509H117.314V49.7681H117.821L118.356 50.8121C118.428 50.6439 118.512 50.49 118.605 50.3503C118.699 50.2079 118.807 50.0863 118.929 49.9854C119.052 49.8819 119.189 49.8017 119.343 49.7448C119.499 49.6879 119.675 49.6594 119.87 49.6594C119.971 49.6594 120.084 49.6685 120.209 49.6866C120.334 49.7021 120.456 49.7306 120.576 49.772C120.696 49.8108 120.806 49.8625 120.908 49.9272C121.009 49.9919 121.088 50.0708 121.146 50.164Z" fill="#F7F7FF"/>
<path d="M123.085 48.6852C123.085 48.7835 123.066 48.8767 123.027 48.9647C122.99 49.0526 122.939 49.129 122.874 49.1937C122.809 49.2583 122.733 49.3101 122.644 49.3489C122.556 49.3851 122.462 49.4032 122.363 49.4032C122.264 49.4032 122.171 49.3851 122.082 49.3489C121.996 49.3101 121.921 49.2583 121.856 49.1937C121.791 49.129 121.739 49.0526 121.7 48.9647C121.663 48.8767 121.645 48.7835 121.645 48.6852C121.645 48.5869 121.663 48.495 121.7 48.4097C121.739 48.3217 121.791 48.2454 121.856 48.1807C121.921 48.116 121.996 48.0655 122.082 48.0293C122.171 47.9905 122.264 47.9711 122.363 47.9711C122.462 47.9711 122.556 47.9905 122.644 48.0293C122.733 48.0655 122.809 48.116 122.874 48.1807C122.939 48.2454 122.99 48.3217 123.027 48.4097C123.066 48.495 123.085 48.5869 123.085 48.6852ZM123.027 54.2509H121.704V49.772H123.027V54.2509Z" fill="#F7F7FF"/>
<path d="M128.295 50.8781L127.725 51.1032C127.634 50.8186 127.482 50.6 127.268 50.4473C127.055 50.2946 126.799 50.2183 126.5 50.2183C126.338 50.2183 126.194 50.2442 126.066 50.2959C125.942 50.3451 125.831 50.4137 125.735 50.5016C125.641 50.5896 125.56 50.6918 125.493 50.8082C125.428 50.9247 125.374 51.0489 125.333 51.1808C125.291 51.3128 125.261 51.4499 125.243 51.5922C125.225 51.732 125.216 51.8678 125.216 51.9998C125.216 52.1421 125.224 52.2857 125.239 52.4306C125.255 52.5755 125.281 52.7152 125.317 52.8498C125.356 52.9817 125.407 53.1059 125.469 53.2224C125.532 53.3362 125.61 53.4358 125.703 53.5212C125.8 53.6066 125.913 53.6739 126.043 53.723C126.176 53.7722 126.328 53.7968 126.5 53.7968C126.637 53.7968 126.769 53.7761 126.894 53.7347C127.019 53.6933 127.133 53.6351 127.237 53.56C127.341 53.485 127.433 53.3957 127.514 53.2922C127.595 53.1887 127.658 53.0736 127.705 52.9468L128.279 53.1564C128.193 53.3608 128.079 53.538 127.936 53.6881C127.795 53.8356 127.635 53.9585 127.456 54.0568C127.276 54.1526 127.084 54.2237 126.878 54.2703C126.673 54.3169 126.464 54.3401 126.254 54.3401C125.913 54.3401 125.597 54.2832 125.305 54.1694C125.014 54.0529 124.762 53.8912 124.548 53.6842C124.338 53.4746 124.173 53.2275 124.053 52.9429C123.933 52.6557 123.873 52.3413 123.873 51.9998C123.873 51.6556 123.932 51.34 124.049 51.0528C124.169 50.7655 124.334 50.5184 124.545 50.3114C124.755 50.1045 125.006 49.944 125.298 49.8302C125.589 49.7163 125.908 49.6594 126.254 49.6594C126.472 49.6594 126.686 49.684 126.894 49.7331C127.102 49.7797 127.294 49.8535 127.471 49.9544C127.651 50.0527 127.811 50.1782 127.951 50.3309C128.094 50.4835 128.209 50.6659 128.295 50.8781Z" fill="#F7F7FF"/>
<path d="M133.613 54.2509H132.294V53.7153C132.138 53.9274 131.95 54.0853 131.728 54.1888C131.51 54.2897 131.269 54.3401 131.007 54.3401C130.663 54.3401 130.356 54.2793 130.086 54.1577C129.815 54.0361 129.586 53.8705 129.399 53.6609C129.212 53.4488 129.068 53.2004 128.97 52.9157C128.871 52.6311 128.821 52.3258 128.821 51.9998C128.821 51.6738 128.871 51.3684 128.97 51.0838C129.068 50.7992 129.212 50.5521 129.399 50.3425C129.586 50.1303 129.815 49.9634 130.086 49.8418C130.356 49.7202 130.663 49.6594 131.007 49.6594C131.181 49.6594 131.346 49.6853 131.502 49.737C131.661 49.7888 131.805 49.8625 131.935 49.9583C132.068 50.0514 132.184 50.1653 132.283 50.2998C132.384 50.4318 132.463 50.5793 132.521 50.7423L133.106 49.7681H133.613V54.2509ZM132.286 51.9998C132.286 51.8833 132.28 51.7604 132.267 51.6311C132.257 51.5017 132.237 51.3736 132.208 51.2468C132.18 51.12 132.139 50.9997 132.087 50.8859C132.038 50.7694 131.973 50.6672 131.892 50.5793C131.814 50.4887 131.719 50.4175 131.607 50.3658C131.496 50.314 131.366 50.2882 131.217 50.2882C131.069 50.2882 130.94 50.3153 130.831 50.3697C130.722 50.4214 130.628 50.4926 130.55 50.5831C130.472 50.6711 130.407 50.7733 130.355 50.8897C130.305 51.0062 130.266 51.1278 130.238 51.2546C130.209 51.3814 130.188 51.5094 130.175 51.6388C130.165 51.7656 130.16 51.8859 130.16 51.9998C130.16 52.1136 130.165 52.2352 130.175 52.3646C130.188 52.494 130.209 52.6221 130.238 52.7488C130.266 52.8756 130.305 52.9972 130.355 53.1137C130.407 53.2301 130.472 53.3336 130.55 53.4242C130.628 53.5122 130.722 53.5833 130.831 53.6376C130.94 53.6894 131.069 53.7153 131.217 53.7153C131.353 53.7153 131.472 53.6881 131.576 53.6338C131.683 53.5768 131.775 53.5018 131.853 53.4087C131.934 53.3155 132.002 53.2094 132.056 53.0904C132.111 52.9714 132.155 52.8485 132.189 52.7217C132.223 52.5949 132.247 52.4694 132.263 52.3452C132.279 52.2184 132.286 52.1033 132.286 51.9998Z" fill="#F7F7FF"/>
<path d="M135.997 53.6687C135.997 53.767 135.979 53.8602 135.943 53.9481C135.906 54.0335 135.856 54.1086 135.791 54.1733C135.726 54.2354 135.65 54.2845 135.564 54.3207C135.478 54.3595 135.386 54.379 135.287 54.379C135.188 54.379 135.096 54.3595 135.01 54.3207C134.924 54.2845 134.849 54.2354 134.784 54.1733C134.719 54.1086 134.668 54.0335 134.632 53.9481C134.595 53.8602 134.577 53.767 134.577 53.6687C134.577 53.573 134.595 53.4824 134.632 53.397C134.668 53.309 134.719 53.234 134.784 53.1719C134.849 53.1072 134.924 53.0568 135.01 53.0205C135.096 52.9817 135.188 52.9623 135.287 52.9623C135.386 52.9623 135.478 52.9817 135.564 53.0205C135.65 53.0568 135.726 53.1072 135.791 53.1719C135.856 53.234 135.906 53.309 135.943 53.397C135.979 53.4824 135.997 53.573 135.997 53.6687Z" fill="#F7F7FF"/>
<path d="M83.364 43.917H73.2944V12.2308H63.3516V7.58887H93.3068V12.2308H83.364V43.917Z" fill="#F7F7FF"/>
<path d="M102.511 43.917H92.4414V7.58887H118.668V12.2308H102.511V23.4572H114.99V28.0739H102.511V43.917Z" fill="#F7F7FF"/>
<path d="M147.995 26.5348V27.0142C147.961 28.4269 147.809 29.8901 147.538 31.4038C147.285 32.9175 146.921 34.4312 146.447 35.9448C145.974 37.4585 145.408 38.9554 144.748 40.4354C144.089 41.9154 143.345 43.3282 142.516 44.6737C141.704 46.036 140.825 47.3058 139.878 48.4831C138.931 49.6772 137.934 50.7284 136.885 51.6366L133.106 49.467C133.698 48.4747 134.23 47.3899 134.704 46.2126C135.194 45.0521 135.634 43.8327 136.023 42.5545C136.412 41.2763 136.741 39.9645 137.012 38.619C137.299 37.2735 137.536 35.9364 137.722 34.6078C137.908 33.2791 138.043 31.9756 138.128 30.6974C138.229 29.4024 138.28 28.1746 138.28 27.0142C138.28 26.106 138.272 25.08 138.255 23.9364C138.255 22.7759 138.187 21.5986 138.052 20.4045C137.934 19.2103 137.731 18.0499 137.443 16.923C137.156 15.7794 136.724 14.7618 136.15 13.8704C135.592 12.9791 134.864 12.2643 133.968 11.7261C133.089 11.1879 131.99 10.9188 130.671 10.9188C129.504 10.9188 128.498 11.1206 127.653 11.5243C126.824 11.9111 126.114 12.4409 125.522 13.1136C124.947 13.7695 124.482 14.5348 124.127 15.4093C123.789 16.2839 123.518 17.2089 123.315 18.1844C123.129 19.1431 123.002 20.1185 122.935 21.1108C122.884 22.0863 122.859 23.0113 122.859 23.8859V30.9245H133.791V35.0871H122.859V43.9168H112.789V25.45C112.789 22.8095 113.212 20.354 114.057 18.0835C114.903 15.813 116.095 13.8452 117.634 12.1802C119.189 10.4983 121.049 9.18647 123.214 8.24463C125.395 7.28597 127.822 6.80664 130.493 6.80664C132.303 6.80664 133.994 7.06733 135.566 7.5887C137.156 8.09326 138.601 8.79964 139.903 9.70785C141.206 10.5992 142.364 11.6672 143.378 12.9118C144.41 14.1395 145.264 15.485 145.94 16.9482C146.633 18.4115 147.158 19.9588 147.513 21.5902C147.868 23.2216 148.029 24.8698 147.995 26.5348Z" fill="#F7F7FF"/>
</svg>
