<svg width="40" height="40" viewBox="0 0 40 40" fill="none" xmlns="http://www.w3.org/2000/svg">
<rect width="40" height="40" rx="8" fill="#2D3582"/>
<path fill-rule="evenodd" clip-rule="evenodd" d="M15.5208 11.1463C16.2925 11.0848 17.0251 10.7813 17.6143 10.2792C18.9892 9.10746 21.0115 9.10746 22.3865 10.2792C22.9757 10.7813 23.7083 11.0848 24.48 11.1463C26.2808 11.29 27.7107 12.72 27.8544 14.5208C27.916 15.2925 28.2195 16.0251 28.7216 16.6143C29.8933 17.9892 29.8933 20.0115 28.7216 21.3865C28.2195 21.9757 27.916 22.7083 27.8544 23.48C27.7107 25.2808 26.2808 26.7107 24.48 26.8544C23.7083 26.916 22.9757 27.2195 22.3865 27.7216C21.0115 28.8933 18.9892 28.8933 17.6143 27.7216C17.0251 27.2195 16.2925 26.916 15.5208 26.8544C13.72 26.7107 12.29 25.2808 12.1463 23.48C12.0848 22.7083 11.7813 21.9757 11.2792 21.3865C10.1075 20.0115 10.1075 17.9892 11.2792 16.6143C11.7813 16.0251 12.0848 15.2925 12.1463 14.5208C12.29 12.72 13.72 11.29 15.5208 11.1463ZM24.4489 17.4489C24.9175 16.9803 24.9175 16.2205 24.4489 15.7519C23.9803 15.2832 23.2205 15.2832 22.7519 15.7519L18.8004 19.7033L17.2489 18.1519C16.7803 17.6832 16.0205 17.6832 15.5519 18.1519C15.0832 18.6205 15.0832 19.3803 15.5519 19.8489L17.9519 22.2489C18.4205 22.7175 19.1803 22.7175 19.6489 22.2489L24.4489 17.4489Z" fill="url(#paint0_linear_1752_1767)"/>
<defs>
<linearGradient id="paint0_linear_1752_1767" x1="10.4004" y1="9.40039" x2="32.6974" y2="23.7997" gradientUnits="userSpaceOnUse">
<stop stop-color="#FFE5C0"/>
<stop offset="0.557372" stop-color="#FFFBF4"/>
<stop offset="1" stop-color="#FFE6C4"/>
</linearGradient>
</defs>
</svg>
