<svg width="40" height="40" viewBox="0 0 40 40" fill="none" xmlns="http://www.w3.org/2000/svg">
<rect width="40" height="40" rx="8" fill="url(#paint0_linear_1467_794)"/>
<path d="M21.11 30C20.7983 30 20.5371 29.8935 20.3263 29.6806C20.1154 29.4676 20.01 29.2037 20.01 28.8889C20.01 28.7593 20.0375 28.625 20.0925 28.4861C20.1475 28.3472 20.23 28.2222 20.34 28.1111L25.4275 22.9722L24.63 22.1667L19.57 27.3056C19.46 27.4167 19.3408 27.5 19.2125 27.5556C19.0842 27.6111 18.9467 27.6389 18.8 27.6389C18.4883 27.6389 18.2271 27.5324 18.0162 27.3194C17.8054 27.1065 17.7 26.8426 17.7 26.5278C17.7 26.3426 17.7275 26.1898 17.7825 26.0694C17.8375 25.9491 17.9108 25.8426 18.0025 25.75L23.09 20.6111L22.32 19.8333L17.2325 24.9444C17.1225 25.0556 17.0033 25.1389 16.875 25.1944C16.7467 25.25 16.6 25.2778 16.435 25.2778C16.1417 25.2778 15.885 25.1667 15.665 24.9444C15.445 24.7222 15.335 24.463 15.335 24.1667C15.335 24.0185 15.3625 23.8796 15.4175 23.75C15.4725 23.6204 15.555 23.5 15.665 23.3889L20.7525 18.25L19.955 17.4722L14.895 22.6111C14.8033 22.7037 14.6933 22.7778 14.565 22.8333C14.4367 22.8889 14.2808 22.9167 14.0975 22.9167C13.7858 22.9167 13.5246 22.8102 13.3138 22.5972C13.1029 22.3843 12.9975 22.1204 12.9975 21.8056C12.9975 21.6574 13.025 21.5185 13.08 21.3889C13.135 21.2593 13.2175 21.1389 13.3275 21.0278L19.46 14.8333L23.585 19.0278C23.7867 19.2315 24.025 19.3935 24.3 19.5139C24.575 19.6343 24.85 19.6944 25.125 19.6944C25.7117 19.6944 26.225 19.4861 26.665 19.0694C27.105 18.6528 27.325 18.1204 27.325 17.4722C27.325 17.213 27.2792 16.9444 27.1875 16.6667C27.0958 16.3889 26.9308 16.1296 26.6925 15.8889L21.77 10.9167C22.0817 10.6204 22.43 10.3935 22.815 10.2361C23.2 10.0787 23.585 10 23.97 10C24.4467 10 24.8867 10.0787 25.29 10.2361C25.6933 10.3935 26.06 10.6389 26.39 10.9722L31.0375 15.6944C31.3675 16.0278 31.6104 16.3981 31.7663 16.8056C31.9221 17.213 32 17.6852 32 18.2222C32 18.5926 31.9175 18.9676 31.7525 19.3472C31.5875 19.7269 31.3492 20.0741 31.0375 20.3889L21.88 29.6667C21.7333 29.8148 21.605 29.9074 21.495 29.9444C21.385 29.9815 21.2567 30 21.11 30ZM11.6775 21.1111L10.9625 20.3889C10.6508 20.0926 10.4125 19.7407 10.2475 19.3333C10.0825 18.9259 10 18.5 10 18.0556C10 17.5741 10.0917 17.1296 10.275 16.7222C10.4583 16.3148 10.6875 15.9722 10.9625 15.6944L15.61 10.9722C15.9033 10.6759 16.2517 10.4398 16.655 10.2639C17.0583 10.088 17.4525 10 17.8375 10C18.3325 10 18.7725 10.0694 19.1575 10.2083C19.5425 10.3472 19.9183 10.6019 20.285 10.9722L25.9225 16.6667C26.0325 16.7778 26.115 16.8981 26.17 17.0278C26.225 17.1574 26.2525 17.2963 26.2525 17.4444C26.2525 17.7407 26.1425 18 25.9225 18.2222C25.7025 18.4444 25.4458 18.5556 25.1525 18.5556C24.9875 18.5556 24.85 18.5324 24.74 18.4861C24.63 18.4398 24.5108 18.3519 24.3825 18.2222L19.4325 13.2778L11.6775 21.1111Z" fill="url(#paint1_linear_1467_794)"/>
<defs>
<linearGradient id="paint0_linear_1467_794" x1="4" y1="9.60004" x2="32" y2="36.8" gradientUnits="userSpaceOnUse">
<stop offset="0.216302" stop-color="#202054"/>
<stop offset="0.593861" stop-color="#AB2638"/>
<stop offset="1" stop-color="#F0B73F"/>
</linearGradient>
<linearGradient id="paint1_linear_1467_794" x1="10" y1="10" x2="34.0615" y2="27.0927" gradientUnits="userSpaceOnUse">
<stop stop-color="#FFE5C0"/>
<stop offset="0.557372" stop-color="#FFFBF4"/>
<stop offset="1" stop-color="#FFE6C4"/>
</linearGradient>
</defs>
</svg>
