<svg width="40" height="40" viewBox="0 0 40 40" fill="none" xmlns="http://www.w3.org/2000/svg">
<rect width="40" height="40" rx="8" fill="url(#paint0_linear_1467_755)"/>
<path d="M25.5291 15.77C25.4591 15.76 25.3891 15.76 25.3191 15.77C23.7691 15.72 22.5391 14.45 22.5391 12.89C22.5391 11.3 23.8291 10 25.4291 10C27.0191 10 28.3191 11.29 28.3191 12.89C28.3091 14.45 27.0791 15.72 25.5291 15.77Z" fill="url(#paint1_linear_1467_755)"/>
<path d="M28.7916 22.7004C27.6716 23.4504 26.1016 23.7304 24.6516 23.5404C25.0316 22.7204 25.2316 21.8104 25.2416 20.8504C25.2416 19.8504 25.0216 18.9004 24.6016 18.0704C26.0816 17.8704 27.6516 18.1504 28.7816 18.9004C30.3616 19.9404 30.3616 21.6504 28.7916 22.7004Z" fill="url(#paint2_linear_1467_755)"/>
<path d="M14.4402 15.77C14.5102 15.76 14.5802 15.76 14.6502 15.77C16.2002 15.72 17.4302 14.45 17.4302 12.89C17.4302 11.29 16.1402 10 14.5402 10C12.9502 10 11.6602 11.29 11.6602 12.89C11.6602 14.45 12.8902 15.72 14.4402 15.77Z" fill="url(#paint3_linear_1467_755)"/>
<path d="M14.5511 20.8506C14.5511 21.8206 14.7611 22.7406 15.1411 23.5706C13.7311 23.7206 12.2611 23.4206 11.1811 22.7106C9.60109 21.6606 9.60109 19.9506 11.1811 18.9006C12.2511 18.1806 13.7611 17.8906 15.1811 18.0506C14.7711 18.8906 14.5511 19.8406 14.5511 20.8506Z" fill="url(#paint4_linear_1467_755)"/>
<path d="M20.1208 23.87C20.0408 23.86 19.9508 23.86 19.8608 23.87C18.0208 23.81 16.5508 22.3 16.5508 20.44C16.5608 18.54 18.0908 17 20.0008 17C21.9008 17 23.4408 18.54 23.4408 20.44C23.4308 22.3 21.9708 23.81 20.1208 23.87Z" fill="url(#paint5_linear_1467_755)"/>
<path d="M16.8708 25.9406C15.3608 26.9506 15.3608 28.6106 16.8708 29.6106C18.5908 30.7606 21.4108 30.7606 23.1308 29.6106C24.6408 28.6006 24.6408 26.9406 23.1308 25.9406C21.4208 24.7906 18.6008 24.7906 16.8708 25.9406Z" fill="url(#paint6_linear_1467_755)"/>
<defs>
<linearGradient id="paint0_linear_1467_755" x1="4" y1="9.60004" x2="32" y2="36.8" gradientUnits="userSpaceOnUse">
<stop offset="0.216302" stop-color="#202054"/>
<stop offset="0.593861" stop-color="#AB2638"/>
<stop offset="1" stop-color="#F0B73F"/>
</linearGradient>
<linearGradient id="paint1_linear_1467_755" x1="22.5391" y1="10" x2="29.2445" y2="14.3379" gradientUnits="userSpaceOnUse">
<stop stop-color="#FFE5C0"/>
<stop offset="0.557372" stop-color="#FFFBF4"/>
<stop offset="1" stop-color="#FFE6C4"/>
</linearGradient>
<linearGradient id="paint2_linear_1467_755" x1="24.6016" y1="18.0078" x2="30.9808" y2="21.9625" gradientUnits="userSpaceOnUse">
<stop stop-color="#FFE5C0"/>
<stop offset="0.557372" stop-color="#FFFBF4"/>
<stop offset="1" stop-color="#FFE6C4"/>
</linearGradient>
<linearGradient id="paint3_linear_1467_755" x1="11.6602" y1="10" x2="18.3609" y2="14.3273" gradientUnits="userSpaceOnUse">
<stop stop-color="#FFE5C0"/>
<stop offset="0.557372" stop-color="#FFFBF4"/>
<stop offset="1" stop-color="#FFE6C4"/>
</linearGradient>
<linearGradient id="paint4_linear_1467_755" x1="9.99609" y1="18.0078" x2="16.2817" y2="21.7659" gradientUnits="userSpaceOnUse">
<stop stop-color="#FFE5C0"/>
<stop offset="0.557372" stop-color="#FFFBF4"/>
<stop offset="1" stop-color="#FFE6C4"/>
</linearGradient>
<linearGradient id="paint5_linear_1467_755" x1="16.5508" y1="17" x2="24.5384" y2="22.1734" gradientUnits="userSpaceOnUse">
<stop stop-color="#FFE5C0"/>
<stop offset="0.557372" stop-color="#FFFBF4"/>
<stop offset="1" stop-color="#FFE6C4"/>
</linearGradient>
<linearGradient id="paint6_linear_1467_755" x1="15.7383" y1="25.0781" x2="22.6107" y2="32.0912" gradientUnits="userSpaceOnUse">
<stop stop-color="#FFE5C0"/>
<stop offset="0.557372" stop-color="#FFFBF4"/>
<stop offset="1" stop-color="#FFE6C4"/>
</linearGradient>
</defs>
</svg>
