<svg width="40" height="40" viewBox="0 0 40 40" fill="none" xmlns="http://www.w3.org/2000/svg">
<mask id="mask0_1958_2667" style="mask-type:alpha" maskUnits="userSpaceOnUse" x="0" y="0" width="40" height="40">
<rect width="40" height="40" fill="#D9D9D9"/>
</mask>
<g mask="url(#mask0_1958_2667)">
<path d="M18.8327 13.8333L15.3327 10.3333C14.9993 10 14.8327 9.61111 14.8327 9.16667C14.8327 8.72222 14.9993 8.33333 15.3327 8L18.8327 4.5C19.166 4.16667 19.5549 4 19.9993 4C20.4438 4 20.8327 4.16667 21.166 4.5L24.666 8C24.9993 8.33333 25.166 8.72222 25.166 9.16667C25.166 9.61111 24.9993 10 24.666 10.3333L21.166 13.8333C20.8327 14.1667 20.4438 14.3333 19.9993 14.3333C19.5549 14.3333 19.166 14.1667 18.8327 13.8333ZM3.33268 33.3333C2.86046 33.3333 2.46463 33.1736 2.14518 32.8542C1.82574 32.5347 1.66602 32.1389 1.66602 31.6667V26.6667C1.66602 25.7222 1.9924 24.9306 2.64518 24.2917C3.29796 23.6528 4.08268 23.3333 4.99935 23.3333H10.4577C11.0132 23.3333 11.541 23.4722 12.041 23.75C12.541 24.0278 12.9438 24.4028 13.2493 24.875C14.0549 25.9583 15.048 26.8056 16.2285 27.4167C17.4091 28.0278 18.666 28.3333 19.9993 28.3333C21.3605 28.3333 22.6313 28.0278 23.8119 27.4167C24.9924 26.8056 25.9716 25.9583 26.7493 24.875C27.1105 24.4028 27.5341 24.0278 28.0202 23.75C28.5063 23.4722 29.0132 23.3333 29.541 23.3333H34.9994C35.9438 23.3333 36.7355 23.6528 37.3744 24.2917C38.0132 24.9306 38.3327 25.7222 38.3327 26.6667V31.6667C38.3327 32.1389 38.173 32.5347 37.8535 32.8542C37.5341 33.1736 37.1382 33.3333 36.666 33.3333H28.3327C27.8605 33.3333 27.4646 33.1736 27.1452 32.8542C26.8257 32.5347 26.666 32.1389 26.666 31.6667V29.5417C25.6938 30.2361 24.6452 30.7639 23.5202 31.125C22.3952 31.4861 21.2216 31.6667 19.9993 31.6667C18.8049 31.6667 17.6382 31.4792 16.4994 31.1042C15.3605 30.7292 14.3049 30.1944 13.3327 29.5V31.6667C13.3327 32.1389 13.173 32.5347 12.8535 32.8542C12.5341 33.1736 12.1382 33.3333 11.666 33.3333H3.33268ZM6.66602 21.6667C5.27713 21.6667 4.09657 21.1806 3.12435 20.2083C2.15213 19.2361 1.66602 18.0556 1.66602 16.6667C1.66602 15.25 2.15213 14.0625 3.12435 13.1042C4.09657 12.1458 5.27713 11.6667 6.66602 11.6667C8.08268 11.6667 9.27018 12.1458 10.2285 13.1042C11.1868 14.0625 11.666 15.25 11.666 16.6667C11.666 18.0556 11.1868 19.2361 10.2285 20.2083C9.27018 21.1806 8.08268 21.6667 6.66602 21.6667ZM33.3327 21.6667C31.9438 21.6667 30.7632 21.1806 29.791 20.2083C28.8188 19.2361 28.3327 18.0556 28.3327 16.6667C28.3327 15.25 28.8188 14.0625 29.791 13.1042C30.7632 12.1458 31.9438 11.6667 33.3327 11.6667C34.7494 11.6667 35.9369 12.1458 36.8952 13.1042C37.8535 14.0625 38.3327 15.25 38.3327 16.6667C38.3327 18.0556 37.8535 19.2361 36.8952 20.2083C35.9369 21.1806 34.7494 21.6667 33.3327 21.6667Z" fill="url(#paint0_linear_1958_2667)"/>
</g>
<defs>
<linearGradient id="paint0_linear_1958_2667" x1="5.33268" y1="11.04" x2="25.4935" y2="35.5209" gradientUnits="userSpaceOnUse">
<stop offset="0.216302" stop-color="#222054"/>
<stop offset="0.593861" stop-color="#AB2638"/>
<stop offset="1" stop-color="#F0B73F"/>
</linearGradient>
</defs>
</svg>
