<svg width="41" height="40" viewBox="0 0 41 40" fill="none" xmlns="http://www.w3.org/2000/svg">
<rect x="0.5" width="40" height="40" rx="8" fill="#FFE5C0"/>
<path fill-rule="evenodd" clip-rule="evenodd" d="M16.0208 11.1463C16.7925 11.0848 17.5251 10.7813 18.1143 10.2792C19.4892 9.10746 21.5115 9.10746 22.8865 10.2792C23.4757 10.7813 24.2083 11.0848 24.98 11.1463C26.7808 11.29 28.2107 12.72 28.3544 14.5208C28.416 15.2925 28.7195 16.0251 29.2216 16.6143C30.3933 17.9892 30.3933 20.0115 29.2216 21.3865C28.7195 21.9757 28.416 22.7083 28.3544 23.48C28.2107 25.2808 26.7808 26.7107 24.98 26.8544C24.2083 26.916 23.4757 27.2195 22.8865 27.7216C21.5115 28.8933 19.4892 28.8933 18.1143 27.7216C17.5251 27.2195 16.7925 26.916 16.0208 26.8544C14.22 26.7107 12.79 25.2808 12.6463 23.48C12.5848 22.7083 12.2813 21.9757 11.7792 21.3865C10.6075 20.0115 10.6075 17.9892 11.7792 16.6143C12.2813 16.0251 12.5848 15.2925 12.6463 14.5208C12.79 12.72 14.22 11.29 16.0208 11.1463ZM24.9489 17.4489C25.4175 16.9803 25.4175 16.2205 24.9489 15.7519C24.4803 15.2832 23.7205 15.2832 23.2519 15.7519L19.3004 19.7033L17.7489 18.1519C17.2803 17.6832 16.5205 17.6832 16.0519 18.1519C15.5832 18.6205 15.5832 19.3803 16.0519 19.8489L18.4519 22.2489C18.9205 22.7175 19.6803 22.7175 20.1489 22.2489L24.9489 17.4489Z" fill="#202054"/>
</svg>
