<svg width="98" height="28" viewBox="0 0 98 28" fill="none" xmlns="http://www.w3.org/2000/svg">
<g clip-path="url(#clip0_1467_618)">
<path d="M25.4062 1.35742H32.9213C36.2987 1.35742 39.2119 3.55714 39.2119 7.4408C39.2119 11.3245 36.2987 13.549 32.9213 13.549H28.3755V20.3625H25.4062V1.35742ZM32.7312 10.9703C34.8842 10.9703 36.3267 9.55666 36.3267 7.4408C36.3267 5.32498 34.8842 3.93618 32.7312 3.93618H28.3693V10.9703H32.7312Z" fill="#121212"/>
<path d="M40.3008 6.92549H43.161V8.74306C44.2764 7.24861 46.0181 6.68004 48.3611 6.70801V9.7217C47.7973 9.49957 47.1942 9.39385 46.5883 9.41107C44.8217 9.41107 43.161 10.8526 43.161 13.5401V20.363H40.3008V6.92549Z" fill="#121212"/>
<path d="M48.3362 13.6308C48.3245 12.2149 48.7348 10.8276 49.5151 9.64471C50.2953 8.46185 51.4103 7.53676 52.7187 6.98683C54.0271 6.43691 55.4698 6.28695 56.8638 6.55597C58.2577 6.825 59.5401 7.50088 60.5482 8.49789C61.5563 9.49486 62.2448 10.768 62.5261 12.1558C62.8074 13.5436 62.669 14.9834 62.1284 16.2926C61.5878 17.6018 60.6694 18.7213 59.4896 19.5092C58.31 20.297 56.9221 20.7176 55.5024 20.7177C53.6103 20.7235 51.7931 19.9805 50.4497 18.652C49.1061 17.3233 48.3461 15.5175 48.3362 13.6308ZM59.7147 13.6587C59.7147 11.1732 57.864 9.23447 55.4961 9.25933C53.1251 9.23447 51.3023 11.1608 51.3023 13.6587C51.3023 16.1567 53.1251 18.0551 55.4961 18.0209C57.864 18.0551 59.7147 16.1287 59.7147 13.6712V13.6587Z" fill="#121212"/>
<path d="M64.0742 6.92505H66.9344V8.85137C68.0498 7.5744 69.5204 6.73242 71.8883 6.73242C75.5649 6.73242 78.3129 9.74618 78.3129 13.6578C78.3129 17.5694 75.5649 20.5552 71.8883 20.5552C69.5204 20.5552 68.0498 19.6852 66.9344 18.4642V27.1636H64.0742V6.92505ZM75.462 13.6702C75.462 11.1442 73.6363 9.218 71.2122 9.218C68.7882 9.218 66.9344 11.1318 66.9344 13.6702C66.9344 16.2086 68.7851 18.0945 71.206 18.0945C73.6269 18.0945 75.462 16.1557 75.462 13.6702Z" fill="#121212"/>
<path d="M92.7708 13.4137C92.7708 13.7244 92.7708 14.0351 92.7427 14.3923H81.5261C81.8377 16.8779 83.7071 18.3568 85.9348 18.3568C86.6964 18.3739 87.4528 18.2191 88.1454 17.9038C88.8389 17.5886 89.4523 17.121 89.9382 16.5361L91.6834 18.0026C90.4368 19.7394 88.1965 20.6901 85.9348 20.6901C85.0071 20.7009 84.0865 20.5269 83.2272 20.1781C82.3679 19.8293 81.587 19.3129 80.9305 18.6591C80.274 18.0054 79.7551 17.2274 79.4042 16.3709C79.0534 15.5145 78.8775 14.5967 78.8871 13.6716C78.8871 9.65118 81.9093 6.55668 85.9382 6.55668C89.8293 6.54426 92.6899 9.17892 92.7708 13.4137ZM81.5822 12.5189H90.213C89.7485 10.1545 88.1684 8.7719 85.9348 8.7719C83.7008 8.7719 82.0028 10.2539 81.5822 12.5189Z" fill="#121212"/>
<path d="M96.7495 0H94.0352V20.3629H96.7495V0Z" fill="#121212"/>
<path d="M15.372 1.50391V6.58064L5.2865 12.3875L0.242188 9.47944V4.40889L5.2865 7.31699L15.372 1.50391Z" fill="#121212"/>
<path d="M20.4189 9.48242V14.5592L10.3334 20.3629L5.28906 17.4548V12.3843L10.3334 15.2923L20.4189 9.48242Z" fill="#121212"/>
</g>
<defs>
<clipPath id="clip0_1467_618">
<rect width="97" height="28" fill="white" transform="translate(0.242188)"/>
</clipPath>
</defs>
</svg>
