<svg width="42" height="42" viewBox="0 0 42 42" fill="none" xmlns="http://www.w3.org/2000/svg">
<rect x="0.5" y="0.5" width="41" height="41" rx="8.5" fill="#AB2638"/>
<path d="M21 31C26.5228 31 31 26.5228 31 21C31 15.4772 26.5228 11 21 11C15.4772 11 11 15.4772 11 21C11 26.5228 15.4772 31 21 31Z" stroke="url(#paint0_linear_1676_1457)" stroke-width="1.5" stroke-linecap="round" stroke-linejoin="round"/>
<path d="M17.0016 12H18.0016C16.0516 17.84 16.0516 24.16 18.0016 30H17.0016" stroke="url(#paint1_linear_1676_1457)" stroke-width="1.5" stroke-linecap="round" stroke-linejoin="round"/>
<path d="M24 12C25.95 17.84 25.95 24.16 24 30" stroke="url(#paint2_linear_1676_1457)" stroke-width="1.5" stroke-linecap="round" stroke-linejoin="round"/>
<path d="M12 25V24C17.84 25.95 24.16 25.95 30 24V25" stroke="url(#paint3_linear_1676_1457)" stroke-width="1.5" stroke-linecap="round" stroke-linejoin="round"/>
<path d="M12 17.9996C17.84 16.0496 24.16 16.0496 30 17.9996" stroke="url(#paint4_linear_1676_1457)" stroke-width="1.5" stroke-linecap="round" stroke-linejoin="round"/>
<rect x="0.5" y="0.5" width="41" height="41" rx="8.5" stroke="#FEBBC4"/>
<defs>
<linearGradient id="paint0_linear_1676_1457" x1="11" y1="11" x2="34.226" y2="25.9993" gradientUnits="userSpaceOnUse">
<stop stop-color="#FFE5C0"/>
<stop offset="0.557372" stop-color="#FFFBF4"/>
<stop offset="1" stop-color="#FFE6C4"/>
</linearGradient>
<linearGradient id="paint1_linear_1676_1457" x1="16.5391" y1="12" x2="18.9392" y2="12.1259" gradientUnits="userSpaceOnUse">
<stop stop-color="#FFE5C0"/>
<stop offset="0.557372" stop-color="#FFFBF4"/>
<stop offset="1" stop-color="#FFE6C4"/>
</linearGradient>
<linearGradient id="paint2_linear_1676_1457" x1="24" y1="12" x2="26.4001" y2="12.1259" gradientUnits="userSpaceOnUse">
<stop stop-color="#FFE5C0"/>
<stop offset="0.557372" stop-color="#FFFBF4"/>
<stop offset="1" stop-color="#FFE6C4"/>
</linearGradient>
<linearGradient id="paint3_linear_1676_1457" x1="12" y1="24" x2="12.4616" y2="27.6687" gradientUnits="userSpaceOnUse">
<stop stop-color="#FFE5C0"/>
<stop offset="0.557372" stop-color="#FFFBF4"/>
<stop offset="1" stop-color="#FFE6C4"/>
</linearGradient>
<linearGradient id="paint4_linear_1676_1457" x1="12" y1="16.5371" x2="12.4616" y2="20.2058" gradientUnits="userSpaceOnUse">
<stop stop-color="#FFE5C0"/>
<stop offset="0.557372" stop-color="#FFFBF4"/>
<stop offset="1" stop-color="#FFE6C4"/>
</linearGradient>
</defs>
</svg>
