<svg width="40" height="40" viewBox="0 0 40 40" fill="none" xmlns="http://www.w3.org/2000/svg">
<rect width="40" height="40" rx="8" fill="url(#paint0_linear_1467_786)"/>
<path fill-rule="evenodd" clip-rule="evenodd" d="M15.5189 11.1463C16.2905 11.0848 17.0231 10.7813 17.6123 10.2792C18.9873 9.10746 21.0096 9.10746 22.3845 10.2792C22.9738 10.7813 23.7063 11.0848 24.478 11.1463C26.2788 11.29 27.7088 12.72 27.8525 14.5208C27.9141 15.2925 28.2175 16.0251 28.7196 16.6143C29.8914 17.9892 29.8914 20.0115 28.7196 21.3865C28.2175 21.9757 27.9141 22.7083 27.8525 23.48C27.7088 25.2808 26.2788 26.7107 24.478 26.8544C23.7063 26.916 22.9738 27.2195 22.3845 27.7216C21.0096 28.8933 18.9873 28.8933 17.6123 27.7216C17.0231 27.2195 16.2905 26.916 15.5189 26.8544C13.7181 26.7107 12.2881 25.2808 12.1444 23.48C12.0828 22.7083 11.7794 21.9757 11.2772 21.3865C10.1055 20.0115 10.1055 17.9892 11.2772 16.6143C11.7794 16.0251 12.0828 15.2925 12.1444 14.5208C12.2881 12.72 13.7181 11.29 15.5189 11.1463ZM24.447 17.4489C24.9156 16.9803 24.9156 16.2205 24.447 15.7519C23.9783 15.2832 23.2185 15.2832 22.7499 15.7519L18.7984 19.7033L17.247 18.1519C16.7783 17.6832 16.0185 17.6832 15.5499 18.1519C15.0813 18.6205 15.0813 19.3803 15.5499 19.8489L17.9499 22.2489C18.4185 22.7175 19.1783 22.7175 19.647 22.2489L24.447 17.4489Z" fill="url(#paint1_linear_1467_786)"/>
<defs>
<linearGradient id="paint0_linear_1467_786" x1="4" y1="9.60004" x2="32" y2="36.8" gradientUnits="userSpaceOnUse">
<stop offset="0.216302" stop-color="#202054"/>
<stop offset="0.593861" stop-color="#AB2638"/>
<stop offset="1" stop-color="#F0B73F"/>
</linearGradient>
<linearGradient id="paint1_linear_1467_786" x1="10.3984" y1="9.40039" x2="32.6954" y2="23.7997" gradientUnits="userSpaceOnUse">
<stop stop-color="#FFE5C0"/>
<stop offset="0.557372" stop-color="#FFFBF4"/>
<stop offset="1" stop-color="#FFE6C4"/>
</linearGradient>
</defs>
</svg>
