<svg width="40" height="40" viewBox="0 0 40 40" fill="none" xmlns="http://www.w3.org/2000/svg">
<path d="M29.1648 14.748C28.4968 15.044 27.7792 15.244 27.0248 15.3344C27.7944 14.8736 28.3848 14.1424 28.6632 13.272C27.9432 13.6992 27.1456 14.0096 26.2968 14.176C25.6168 13.4528 24.6488 13 23.5768 13C21.5192 13 19.8504 14.6688 19.8504 16.728C19.8504 17.0192 19.884 17.3024 19.9464 17.576C16.848 17.42 14.1032 15.936 12.2648 13.6816C11.9448 14.2336 11.7608 14.8736 11.7608 15.5552C11.7608 16.848 12.4192 17.9896 13.4184 18.6576C12.8072 18.6376 12.2328 18.4704 11.7304 18.1912V18.2392C11.7304 20.0448 13.0144 21.5512 14.72 21.8936C14.4064 21.9784 14.0776 22.0232 13.7384 22.0232C13.4984 22.0232 13.264 22.0008 13.0368 21.9576C13.5112 23.4376 14.8872 24.516 16.5184 24.5448C15.2424 25.5448 13.6352 26.1408 11.8896 26.1408C11.5888 26.1408 11.292 26.1232 11 26.0888C12.6496 27.1472 14.608 27.7632 16.712 27.7632C23.568 27.7632 27.316 22.0848 27.316 17.16C27.316 17 27.312 16.8384 27.3048 16.6784C28.0328 16.152 28.6648 15.4968 29.1632 14.7504L29.1648 14.748Z" fill="#1D9BF0"/>
</svg>
