<svg width="116" height="48" viewBox="0 0 116 48" fill="none" xmlns="http://www.w3.org/2000/svg">
<path d="M24.3012 48C10.9016 48 0 37.2335 0 24C0 10.7665 10.9016 0 24.3012 0C37.7009 0 48.6025 10.7665 48.6025 24C48.6025 37.2335 37.7009 48 24.3012 48ZM24.3012 2.98431C12.5681 2.98431 3.02177 12.4124 3.02177 24C3.02177 35.5877 12.5681 45.0157 24.3012 45.0157C36.0344 45.0157 45.5807 35.5877 45.5807 24C45.5807 12.4124 36.0344 2.98431 24.3012 2.98431Z" fill="url(#paint0_linear_1417_294)"/>
<path d="M35.8691 29.2913H41.77L40.5395 27.6726L30.7864 14.8285L29.626 13.3035L28.3835 11.6682L27.3252 10.2746H27.2706H25.1515L22.8638 10.2676L9.60555 27.6726L8.37143 29.2913L6.87954 31.2504L6.83203 31.3126H13.8211L11.1699 34.813H13.6477L16.3511 31.2469L16.3594 31.2351L17.8359 29.2878L19.0629 27.6691L24.4198 20.6083L25.6552 22.226L29.8125 27.6726H21.6309L20.4348 29.2913L18.994 31.2435L21.9017 31.2504H21.9789L32.5503 31.2751L35.293 34.8659L40.2378 34.8765L37.4263 31.2857L35.8691 29.2913ZM27.925 19.1466L26.7052 17.5876L25.4449 15.9746L23.1714 18.9754L16.5803 27.6726L15.3925 29.2409H12.8281L14.0254 27.6726L21.7461 17.5441L24.0101 14.5657L26.211 11.6658L27.2943 13.0971L28.5343 14.7394L29.7092 16.289L38.3278 27.6773H34.5981L27.925 19.1466Z" fill="#202054"/>
<path d="M61.5555 40.8254C61.5555 40.9476 61.5352 41.0618 61.4944 41.168C61.4536 41.2741 61.3975 41.3713 61.3262 41.4594C61.2548 41.5456 61.1712 41.6227 61.0754 41.6908C60.9816 41.7589 60.8796 41.816 60.7695 41.8621C60.6614 41.9082 60.5493 41.9432 60.4331 41.9672C60.3169 41.9893 60.2027 42.0003 60.0905 42.0003H57.5V37.6734H59.8673C59.9713 37.6734 60.0803 37.6814 60.1945 37.6974C60.3087 37.7114 60.4198 37.7345 60.5279 37.7665C60.638 37.7986 60.742 37.8406 60.8399 37.8927C60.9398 37.9448 61.0264 38.0089 61.0998 38.085C61.1753 38.1592 61.2344 38.2453 61.2772 38.3434C61.3221 38.4416 61.3445 38.5538 61.3445 38.68C61.3445 38.8002 61.32 38.9094 61.2711 39.0075C61.2222 39.1057 61.1559 39.1938 61.0723 39.2719C60.9907 39.3481 60.8959 39.4162 60.7879 39.4763C60.6818 39.5344 60.5697 39.5854 60.4514 39.6295C60.6003 39.6696 60.741 39.7227 60.8735 39.7888C61.0081 39.8549 61.1253 39.936 61.2252 40.0322C61.3272 40.1283 61.4077 40.2425 61.4668 40.3747C61.526 40.5049 61.5555 40.6551 61.5555 40.8254ZM60.1119 38.7852C60.1119 38.5408 60.0457 38.3625 59.9131 38.2503C59.7826 38.1381 59.5961 38.082 59.3534 38.082H58.7142V39.4853H59.2495C59.3596 39.4853 59.4666 39.4723 59.5706 39.4462C59.6746 39.4182 59.7663 39.3761 59.8459 39.32C59.9274 39.2619 59.9916 39.1888 60.0385 39.1007C60.0875 39.0125 60.1119 38.9074 60.1119 38.7852ZM60.326 40.7503C60.326 40.6321 60.3107 40.5219 60.2802 40.4198C60.2496 40.3156 60.2027 40.2265 60.1395 40.1523C60.0763 40.0762 59.9967 40.0171 59.9009 39.9751C59.8071 39.931 59.696 39.909 59.5675 39.909H58.7142V41.5796H59.4605C59.5849 41.5796 59.7001 41.5596 59.8061 41.5195C59.9121 41.4795 60.0039 41.4234 60.0814 41.3513C60.1588 41.2791 60.219 41.192 60.2618 41.0898C60.3046 40.9877 60.326 40.8745 60.326 40.7503Z" fill="url(#paint1_linear_1417_294)"/>
<path d="M65.3236 38.5297L64.039 41.5826C63.8922 41.9312 63.7281 42.2757 63.5466 42.6163C63.3672 42.9588 63.1725 43.2874 62.9624 43.6019L62.5587 43.3615C62.6097 43.2713 62.6699 43.1672 62.7392 43.049C62.8085 42.9308 62.8768 42.8086 62.9441 42.6824C63.0114 42.5562 63.0736 42.431 63.1307 42.3068C63.1878 42.1846 63.2316 42.0724 63.2622 41.9703L61.7176 38.5297H62.7514L63.8005 40.8765L64.6079 38.5297H65.3236Z" fill="url(#paint2_linear_1417_294)"/>
<path d="M71.7923 39.93V39.9871C71.7882 40.1553 71.7698 40.3296 71.7372 40.5099C71.7066 40.6902 71.6628 40.8705 71.6057 41.0508C71.5486 41.2311 71.4803 41.4094 71.4008 41.5856C71.3213 41.7619 71.2316 41.9302 71.1316 42.0904C71.0338 42.2527 70.9277 42.4039 70.8136 42.5442C70.6994 42.6864 70.5791 42.8116 70.4527 42.9198L69.997 42.6614C70.0683 42.5432 70.1325 42.414 70.1896 42.2737C70.2488 42.1355 70.3018 41.9903 70.3487 41.838C70.3956 41.6858 70.4353 41.5295 70.468 41.3693C70.5026 41.209 70.5312 41.0498 70.5536 40.8915C70.576 40.7333 70.5923 40.578 70.6025 40.4258C70.6148 40.2715 70.6209 40.1253 70.6209 39.9871C70.6209 39.8789 70.6199 39.7567 70.6178 39.6205C70.6178 39.4823 70.6097 39.342 70.5934 39.1998C70.5791 39.0576 70.5546 38.9194 70.52 38.7852C70.4853 38.6489 70.4333 38.5277 70.364 38.4216C70.2967 38.3154 70.209 38.2303 70.1009 38.1662C69.9949 38.1021 69.8624 38.07 69.7033 38.07C69.5626 38.07 69.4413 38.0941 69.3394 38.1421C69.2395 38.1882 69.1538 38.2513 69.0825 38.3314C69.0131 38.4096 68.9571 38.5007 68.9142 38.6049C68.8735 38.709 68.8408 38.8192 68.8164 38.9354C68.7939 39.0496 68.7787 39.1658 68.7705 39.284C68.7644 39.4001 68.7613 39.5103 68.7613 39.6145V40.4528H70.0795V40.9486H68.7613V42.0003H67.5471V39.8008C67.5471 39.4863 67.5981 39.1938 67.7 38.9234C67.802 38.6529 67.9457 38.4186 68.1313 38.2203C68.3189 38.0199 68.5432 37.8637 68.8041 37.7515C69.0672 37.6373 69.3598 37.5802 69.6819 37.5802C69.9001 37.5802 70.104 37.6113 70.2936 37.6734C70.4853 37.7335 70.6596 37.8176 70.8166 37.9258C70.9736 38.032 71.1133 38.1592 71.2356 38.3074C71.36 38.4536 71.463 38.6139 71.5445 38.7882C71.6281 38.9624 71.6913 39.1467 71.7342 39.341C71.777 39.5354 71.7964 39.7317 71.7923 39.93Z" fill="url(#paint3_linear_1417_294)"/>
<path d="M75.493 42.0003H74.4593L73.5937 40.7834L72.7098 42.0003H71.9941L73.3246 40.4017L71.9941 38.5297H73.0279L73.8659 39.7076L74.7774 38.5297H75.493L74.1351 40.0862L75.493 42.0003Z" fill="url(#paint4_linear_1417_294)"/>
<path d="M77.059 37.6914C77.059 37.7675 77.0437 37.8396 77.0131 37.9078C76.9846 37.9759 76.9448 38.035 76.8938 38.085C76.8428 38.1351 76.7827 38.1752 76.7134 38.2052C76.644 38.2333 76.5706 38.2473 76.4932 38.2473C76.4157 38.2473 76.3423 38.2333 76.273 38.2052C76.2057 38.1752 76.1465 38.1351 76.0956 38.085C76.0446 38.035 76.0038 37.9759 75.9732 37.9078C75.9447 37.8396 75.9304 37.7675 75.9304 37.6914C75.9304 37.6153 75.9447 37.5442 75.9732 37.4781C76.0038 37.41 76.0446 37.3509 76.0956 37.3008C76.1465 37.2507 76.2057 37.2116 76.273 37.1836C76.3423 37.1535 76.4157 37.1385 76.4932 37.1385C76.5706 37.1385 76.644 37.1535 76.7134 37.1836C76.7827 37.2116 76.8428 37.2507 76.8938 37.3008C76.9448 37.3509 76.9846 37.41 77.0131 37.4781C77.0437 37.5442 77.059 37.6153 77.059 37.6914ZM77.0131 42.0003H75.9763V38.5328H77.0131V42.0003Z" fill="url(#paint5_linear_1417_294)"/>
<path d="M81.4387 42.0003H80.405V41.5856C80.2826 41.7499 80.1348 41.8721 79.9615 41.9522C79.7902 42.0303 79.6016 42.0694 79.3957 42.0694C79.1265 42.0694 78.8859 42.0223 78.6739 41.9282C78.4618 41.834 78.2824 41.7058 78.1356 41.5436C77.9888 41.3793 77.8766 41.187 77.7991 40.9666C77.7217 40.7463 77.6829 40.5099 77.6829 40.2575C77.6829 40.0051 77.7217 39.7687 77.7991 39.5484C77.8766 39.328 77.9888 39.1367 78.1356 38.9745C78.2824 38.8102 78.4618 38.681 78.6739 38.5868C78.8859 38.4927 79.1265 38.4456 79.3957 38.4456C79.5323 38.4456 79.6617 38.4656 79.7841 38.5057C79.9085 38.5458 80.0216 38.6029 80.1236 38.677C80.2276 38.7491 80.3183 38.8372 80.3958 38.9414C80.4753 39.0436 80.5375 39.1578 80.5823 39.284L81.0411 38.5297H81.4387V42.0003ZM80.3988 40.2575C80.3988 40.1674 80.3937 40.0722 80.3835 39.9721C80.3754 39.8719 80.3601 39.7727 80.3377 39.6746C80.3152 39.5764 80.2836 39.4833 80.2429 39.3951C80.2041 39.305 80.1531 39.2259 80.0899 39.1578C80.0288 39.0876 79.9543 39.0326 79.8667 38.9925C79.779 38.9524 79.677 38.9324 79.5608 38.9324C79.4446 38.9324 79.3437 38.9534 79.258 38.9955C79.1724 39.0356 79.099 39.0906 79.0378 39.1608C78.9766 39.2289 78.9257 39.308 78.8849 39.3981C78.8462 39.4883 78.8156 39.5824 78.7931 39.6806C78.7707 39.7787 78.7544 39.8779 78.7442 39.9781C78.736 40.0762 78.732 40.1694 78.732 40.2575C78.732 40.3457 78.736 40.4398 78.7442 40.54C78.7544 40.6401 78.7707 40.7393 78.7931 40.8374C78.8156 40.9356 78.8462 41.0297 78.8849 41.1199C78.9257 41.21 78.9766 41.2902 79.0378 41.3603C79.099 41.4284 79.1724 41.4835 79.258 41.5255C79.3437 41.5656 79.4446 41.5856 79.5608 41.5856C79.6668 41.5856 79.7606 41.5646 79.8422 41.5225C79.9258 41.4785 79.9982 41.4204 80.0593 41.3483C80.1226 41.2761 80.1756 41.194 80.2184 41.1019C80.2612 41.0097 80.2959 40.9146 80.3224 40.8164C80.3489 40.7182 80.3683 40.6211 80.3805 40.5249C80.3927 40.4268 80.3988 40.3376 80.3988 40.2575Z" fill="url(#paint6_linear_1417_294)"/>
<path d="M88.3387 39.93V39.9871C88.3346 40.1553 88.3162 40.3296 88.2836 40.5099C88.253 40.6902 88.2092 40.8705 88.1521 41.0508C88.095 41.2311 88.0267 41.4094 87.9472 41.5856C87.8676 41.7619 87.7779 41.9302 87.678 42.0904C87.5802 42.2527 87.4741 42.4039 87.3599 42.5442C87.2458 42.6864 87.1255 42.8116 86.999 42.9198L86.5433 42.6614C86.6147 42.5432 86.6789 42.414 86.736 42.2737C86.7951 42.1355 86.8482 41.9903 86.8951 41.838C86.9419 41.6858 86.9817 41.5295 87.0143 41.3693C87.049 41.209 87.0775 41.0498 87.1 40.8915C87.1224 40.7333 87.1387 40.578 87.1489 40.4258C87.1611 40.2715 87.1673 40.1253 87.1673 39.9871C87.1673 39.8789 87.1662 39.7567 87.1642 39.6205C87.1642 39.4823 87.156 39.342 87.1397 39.1998C87.1255 39.0576 87.101 38.9194 87.0663 38.7852C87.0317 38.6489 86.9797 38.5277 86.9103 38.4216C86.8431 38.3154 86.7554 38.2303 86.6473 38.1662C86.5413 38.1021 86.4088 38.07 86.2497 38.07C86.109 38.07 85.9877 38.0941 85.8858 38.1421C85.7858 38.1882 85.7002 38.2513 85.6288 38.3314C85.5595 38.4096 85.5034 38.5007 85.4606 38.6049C85.4198 38.709 85.3872 38.8192 85.3628 38.9354C85.3403 39.0496 85.325 39.1658 85.3169 39.284C85.3108 39.4001 85.3077 39.5103 85.3077 39.6145V40.4528H86.6259V40.9486H85.3077V42.0003H84.0935V39.8008C84.0935 39.4863 84.1445 39.1938 84.2464 38.9234C84.3484 38.6529 84.4921 38.4186 84.6777 38.2203C84.8652 38.0199 85.0895 37.8637 85.3505 37.7515C85.6136 37.6373 85.9061 37.5802 86.2283 37.5802C86.4465 37.5802 86.6504 37.6113 86.84 37.6734C87.0317 37.7335 87.206 37.8176 87.363 37.9258C87.52 38.032 87.6597 38.1592 87.782 38.3074C87.9064 38.4536 88.0094 38.6139 88.0909 38.7882C88.1745 38.9624 88.2377 39.1467 88.2805 39.341C88.3234 39.5354 88.3427 39.7317 88.3387 39.93Z" fill="url(#paint7_linear_1417_294)"/>
<path d="M92.3208 37.1025L91.7366 38.052C91.7305 37.9759 91.7162 37.8887 91.6938 37.7906C91.6714 37.6904 91.6337 37.5963 91.5806 37.5081C91.5297 37.42 91.4583 37.3459 91.3666 37.2858C91.2768 37.2237 91.1616 37.1926 91.0209 37.1926C90.8762 37.1926 90.76 37.2207 90.6723 37.2767C90.5846 37.3328 90.5173 37.417 90.4704 37.5291C90.4235 37.6413 90.3919 37.7805 90.3756 37.9468C90.3593 38.1131 90.3511 38.3064 90.3511 38.5267H91.4216V38.9294H90.3511V42.0003H89.3143V38.9294H88.672V38.5267H89.3143C89.3143 38.2082 89.349 37.9348 89.4183 37.7064C89.4876 37.4781 89.5926 37.2908 89.7333 37.1445C89.874 36.9963 90.0504 36.8881 90.2624 36.82C90.4765 36.7499 90.7263 36.7148 91.0118 36.7148C91.183 36.7148 91.336 36.7269 91.4705 36.7509C91.6072 36.7729 91.7275 36.803 91.8314 36.841C91.9375 36.8771 92.0302 36.9182 92.1098 36.9642C92.1893 37.0103 92.2596 37.0564 92.3208 37.1025Z" fill="url(#paint8_linear_1417_294)"/>
<path d="M94.9542 38.8362L94.373 39.7828C94.3486 39.7026 94.317 39.6125 94.2782 39.5123C94.2395 39.4122 94.1916 39.319 94.1345 39.2329C94.0774 39.1447 94.0091 39.0716 93.9296 39.0135C93.85 38.9534 93.7583 38.9234 93.6543 38.9234C93.5585 38.9234 93.4749 38.9474 93.4035 38.9955C93.3342 39.0436 93.275 39.1067 93.2261 39.1848C93.1772 39.2609 93.1364 39.3481 93.1038 39.4462C93.0732 39.5424 93.0487 39.6405 93.0304 39.7407C93.0141 39.8388 93.0028 39.934 92.9967 40.0261C92.9906 40.1163 92.9875 40.1944 92.9875 40.2605V42.0003H91.9507V38.5297H92.3483L92.7673 39.338C92.8244 39.2078 92.8897 39.0886 92.9631 38.9805C93.0365 38.8703 93.1211 38.7761 93.2169 38.698C93.3128 38.6179 93.4208 38.5558 93.5411 38.5117C93.6635 38.4676 93.8011 38.4456 93.954 38.4456C94.0335 38.4456 94.1222 38.4526 94.2201 38.4666C94.318 38.4787 94.4138 38.5007 94.5076 38.5328C94.6014 38.5628 94.6881 38.6029 94.7676 38.6529C94.8471 38.703 94.9093 38.7641 94.9542 38.8362Z" fill="url(#paint9_linear_1417_294)"/>
<path d="M96.4742 37.6914C96.4742 37.7675 96.4589 37.8396 96.4283 37.9078C96.3998 37.9759 96.36 38.035 96.3091 38.085C96.2581 38.1351 96.1979 38.1752 96.1286 38.2052C96.0593 38.2333 95.9859 38.2473 95.9084 38.2473C95.8309 38.2473 95.7575 38.2333 95.6882 38.2052C95.6209 38.1752 95.5618 38.1351 95.5108 38.085C95.4598 38.035 95.419 37.9759 95.3885 37.9078C95.3599 37.8396 95.3456 37.7675 95.3456 37.6914C95.3456 37.6153 95.3599 37.5442 95.3885 37.4781C95.419 37.41 95.4598 37.3509 95.5108 37.3008C95.5618 37.2507 95.6209 37.2116 95.6882 37.1836C95.7575 37.1535 95.8309 37.1385 95.9084 37.1385C95.9859 37.1385 96.0593 37.1535 96.1286 37.1836C96.1979 37.2116 96.2581 37.2507 96.3091 37.3008C96.36 37.3509 96.3998 37.41 96.4283 37.4781C96.4589 37.5442 96.4742 37.6153 96.4742 37.6914ZM96.4283 42.0003H95.3915V38.5328H96.4283V42.0003Z" fill="url(#paint10_linear_1417_294)"/>
<path d="M100.557 39.3891L100.111 39.5634C100.039 39.343 99.9201 39.1738 99.7529 39.0556C99.5857 38.9374 99.3849 38.8783 99.1504 38.8783C99.024 38.8783 98.9108 38.8983 98.8109 38.9384C98.713 38.9765 98.6264 39.0295 98.5509 39.0977C98.4775 39.1658 98.4143 39.2449 98.3613 39.335C98.3103 39.4252 98.2685 39.5213 98.2359 39.6235C98.2033 39.7257 98.1798 39.8318 98.1656 39.942C98.1513 40.0502 98.1441 40.1553 98.1441 40.2575C98.1441 40.3677 98.1503 40.4789 98.1625 40.591C98.1747 40.7032 98.1951 40.8114 98.2237 40.9156C98.2543 41.0177 98.294 41.1139 98.3429 41.204C98.3919 41.2922 98.4531 41.3693 98.5265 41.4354C98.6019 41.5015 98.6906 41.5536 98.7925 41.5916C98.8965 41.6297 99.0158 41.6487 99.1504 41.6487C99.2584 41.6487 99.3614 41.6327 99.4593 41.6007C99.5572 41.5686 99.6469 41.5235 99.7284 41.4654C99.81 41.4074 99.8824 41.3382 99.9456 41.2581C100.009 41.178 100.059 41.0888 100.095 40.9907L100.545 41.1529C100.478 41.3112 100.388 41.4484 100.276 41.5646C100.166 41.6788 100.04 41.7739 99.8997 41.8501C99.759 41.9242 99.6081 41.9793 99.4471 42.0153C99.286 42.0514 99.1229 42.0694 98.9577 42.0694C98.6906 42.0694 98.4429 42.0253 98.2145 41.9372C97.9861 41.8471 97.7883 41.7219 97.6211 41.5616C97.456 41.3993 97.3265 41.208 97.2327 40.9877C97.1389 40.7653 97.092 40.5219 97.092 40.2575C97.092 39.9911 97.1379 39.7467 97.2297 39.5243C97.3235 39.302 97.4529 39.1107 97.6181 38.9504C97.7832 38.7902 97.98 38.666 98.2084 38.5778C98.4367 38.4897 98.6865 38.4456 98.9577 38.4456C99.129 38.4456 99.2962 38.4646 99.4593 38.5027C99.6224 38.5388 99.7733 38.5959 99.9119 38.674C100.053 38.7501 100.178 38.8473 100.288 38.9654C100.4 39.0836 100.49 39.2249 100.557 39.3891Z" fill="url(#paint11_linear_1417_294)"/>
<path d="M104.726 42.0003H103.692V41.5856C103.57 41.7499 103.422 41.8721 103.249 41.9522C103.077 42.0303 102.889 42.0694 102.683 42.0694C102.414 42.0694 102.173 42.0223 101.961 41.9282C101.749 41.834 101.57 41.7058 101.423 41.5436C101.276 41.3793 101.164 41.187 101.086 40.9666C101.009 40.7463 100.97 40.5099 100.97 40.2575C100.97 40.0051 101.009 39.7687 101.086 39.5484C101.164 39.328 101.276 39.1367 101.423 38.9745C101.57 38.8102 101.749 38.681 101.961 38.5868C102.173 38.4927 102.414 38.4456 102.683 38.4456C102.82 38.4456 102.949 38.4656 103.071 38.5057C103.196 38.5458 103.309 38.6029 103.411 38.677C103.515 38.7491 103.606 38.8372 103.683 38.9414C103.763 39.0436 103.825 39.1578 103.87 39.284L104.328 38.5297H104.726V42.0003ZM103.686 40.2575C103.686 40.1674 103.681 40.0722 103.671 39.9721C103.663 39.8719 103.647 39.7727 103.625 39.6746C103.603 39.5764 103.571 39.4833 103.53 39.3951C103.491 39.305 103.44 39.2259 103.377 39.1578C103.316 39.0876 103.242 39.0326 103.154 38.9925C103.066 38.9524 102.964 38.9324 102.848 38.9324C102.732 38.9324 102.631 38.9534 102.545 38.9955C102.46 39.0356 102.386 39.0906 102.325 39.1608C102.264 39.2289 102.213 39.308 102.172 39.3981C102.133 39.4883 102.103 39.5824 102.08 39.6806C102.058 39.7787 102.042 39.8779 102.031 39.9781C102.023 40.0762 102.019 40.1694 102.019 40.2575C102.019 40.3457 102.023 40.4398 102.031 40.54C102.042 40.6401 102.058 40.7393 102.08 40.8374C102.103 40.9356 102.133 41.0297 102.172 41.1199C102.213 41.21 102.264 41.2902 102.325 41.3603C102.386 41.4284 102.46 41.4835 102.545 41.5255C102.631 41.5656 102.732 41.5856 102.848 41.5856C102.954 41.5856 103.048 41.5646 103.129 41.5225C103.213 41.4785 103.285 41.4204 103.347 41.3483C103.41 41.2761 103.463 41.194 103.506 41.1019C103.548 41.0097 103.583 40.9146 103.61 40.8164C103.636 40.7182 103.656 40.6211 103.668 40.5249C103.68 40.4268 103.686 40.3376 103.686 40.2575Z" fill="url(#paint12_linear_1417_294)"/>
<path d="M106.595 41.5496C106.595 41.6257 106.58 41.6978 106.552 41.7659C106.523 41.832 106.484 41.8901 106.433 41.9402C106.382 41.9883 106.323 42.0263 106.255 42.0544C106.188 42.0844 106.116 42.0995 106.038 42.0995C105.961 42.0995 105.888 42.0844 105.821 42.0544C105.754 42.0263 105.695 41.9883 105.644 41.9402C105.593 41.8901 105.553 41.832 105.524 41.7659C105.496 41.6978 105.481 41.6257 105.481 41.5496C105.481 41.4755 105.496 41.4053 105.524 41.3392C105.553 41.2711 105.593 41.213 105.644 41.165C105.695 41.1149 105.754 41.0758 105.821 41.0478C105.888 41.0177 105.961 41.0027 106.038 41.0027C106.116 41.0027 106.188 41.0177 106.255 41.0478C106.323 41.0758 106.382 41.1149 106.433 41.165C106.484 41.213 106.523 41.2711 106.552 41.3392C106.58 41.4053 106.595 41.4755 106.595 41.5496Z" fill="url(#paint13_linear_1417_294)"/>
<path d="M65.3378 34H57.4454V9.46875H49.6523V5.875H73.1308V9.46875H65.3378V34Z" fill="#202054"/>
<path d="M80.3455 34H72.4531V5.875H93.0092V9.46875H80.3455V18.1602H90.1266V21.7344H80.3455V34Z" fill="#202054"/>
<path d="M115.996 20.543V20.9141C115.969 22.0078 115.85 23.1406 115.638 24.3125C115.439 25.4844 115.154 26.6563 114.783 27.8281C114.412 29 113.968 30.1589 113.451 31.3047C112.934 32.4505 112.351 33.5443 111.702 34.5859C111.066 35.6406 110.377 36.6237 109.634 37.5352C108.892 38.4596 108.11 39.2734 107.288 39.9766L104.326 38.2969C104.79 37.5286 105.208 36.6888 105.579 35.7773C105.963 34.8789 106.308 33.9349 106.613 32.9453C106.917 31.9557 107.176 30.9401 107.388 29.8984C107.613 28.8568 107.799 27.8216 107.945 26.793C108.09 25.7643 108.196 24.7552 108.263 23.7656C108.342 22.763 108.382 21.8125 108.382 20.9141C108.382 20.2109 108.375 19.4167 108.362 18.5313C108.362 17.6328 108.309 16.7214 108.203 15.7969C108.11 14.8724 107.951 13.974 107.726 13.1016C107.501 12.2161 107.163 11.4284 106.712 10.7383C106.275 10.0482 105.705 9.49479 105.002 9.07813C104.313 8.66146 103.452 8.45313 102.418 8.45313C101.503 8.45313 100.715 8.60938 100.052 8.92188C99.4027 9.22135 98.846 9.63151 98.3822 10.1523C97.9315 10.6602 97.5671 11.2526 97.2888 11.9297C97.0237 12.6068 96.8116 13.3229 96.6526 14.0781C96.5068 14.8203 96.4074 15.5755 96.3544 16.3438C96.3146 17.099 96.2948 17.8151 96.2948 18.4922V23.9414H104.863V27.1641H96.2948V34H88.4023V19.7031C88.4023 17.6589 88.7337 15.7578 89.3963 14C90.059 12.2422 90.9934 10.7188 92.1994 9.42969C93.4188 8.1276 94.8766 7.11198 96.5731 6.38281C98.2828 5.64063 100.185 5.26953 102.279 5.26953C103.697 5.26953 105.022 5.47135 106.255 5.875C107.501 6.26563 108.634 6.8125 109.654 7.51563C110.675 8.20573 111.583 9.03255 112.378 9.99609C113.186 10.9466 113.856 11.9883 114.386 13.1211C114.929 14.2539 115.34 15.4518 115.618 16.7148C115.897 17.9779 116.022 19.2539 115.996 20.543Z" fill="#202054"/>
<defs>
<linearGradient id="paint0_linear_1417_294" x1="4.86025" y1="11.52" x2="38.4698" y2="44.579" gradientUnits="userSpaceOnUse">
<stop offset="0.216302" stop-color="#202054"/>
<stop offset="0.593861" stop-color="#AB2638"/>
<stop offset="1" stop-color="#F0B73F"/>
</linearGradient>
<linearGradient id="paint1_linear_1417_294" x1="62.4095" y1="38.3677" x2="63.7739" y2="47.8166" gradientUnits="userSpaceOnUse">
<stop offset="0.216302" stop-color="#202054"/>
<stop offset="0.593861" stop-color="#AB2638"/>
<stop offset="1" stop-color="#F0B73F"/>
</linearGradient>
<linearGradient id="paint2_linear_1417_294" x1="62.4095" y1="38.3677" x2="63.7739" y2="47.8166" gradientUnits="userSpaceOnUse">
<stop offset="0.216302" stop-color="#202054"/>
<stop offset="0.593861" stop-color="#AB2638"/>
<stop offset="1" stop-color="#F0B73F"/>
</linearGradient>
<linearGradient id="paint3_linear_1417_294" x1="62.4095" y1="38.3677" x2="63.7739" y2="47.8166" gradientUnits="userSpaceOnUse">
<stop offset="0.216302" stop-color="#202054"/>
<stop offset="0.593861" stop-color="#AB2638"/>
<stop offset="1" stop-color="#F0B73F"/>
</linearGradient>
<linearGradient id="paint4_linear_1417_294" x1="62.4095" y1="38.3677" x2="63.7739" y2="47.8166" gradientUnits="userSpaceOnUse">
<stop offset="0.216302" stop-color="#202054"/>
<stop offset="0.593861" stop-color="#AB2638"/>
<stop offset="1" stop-color="#F0B73F"/>
</linearGradient>
<linearGradient id="paint5_linear_1417_294" x1="62.4095" y1="38.3677" x2="63.7739" y2="47.8166" gradientUnits="userSpaceOnUse">
<stop offset="0.216302" stop-color="#202054"/>
<stop offset="0.593861" stop-color="#AB2638"/>
<stop offset="1" stop-color="#F0B73F"/>
</linearGradient>
<linearGradient id="paint6_linear_1417_294" x1="62.4095" y1="38.3677" x2="63.7739" y2="47.8166" gradientUnits="userSpaceOnUse">
<stop offset="0.216302" stop-color="#202054"/>
<stop offset="0.593861" stop-color="#AB2638"/>
<stop offset="1" stop-color="#F0B73F"/>
</linearGradient>
<linearGradient id="paint7_linear_1417_294" x1="62.4095" y1="38.3677" x2="63.7739" y2="47.8166" gradientUnits="userSpaceOnUse">
<stop offset="0.216302" stop-color="#202054"/>
<stop offset="0.593861" stop-color="#AB2638"/>
<stop offset="1" stop-color="#F0B73F"/>
</linearGradient>
<linearGradient id="paint8_linear_1417_294" x1="62.4095" y1="38.3677" x2="63.7739" y2="47.8166" gradientUnits="userSpaceOnUse">
<stop offset="0.216302" stop-color="#202054"/>
<stop offset="0.593861" stop-color="#AB2638"/>
<stop offset="1" stop-color="#F0B73F"/>
</linearGradient>
<linearGradient id="paint9_linear_1417_294" x1="62.4095" y1="38.3677" x2="63.7739" y2="47.8166" gradientUnits="userSpaceOnUse">
<stop offset="0.216302" stop-color="#202054"/>
<stop offset="0.593861" stop-color="#AB2638"/>
<stop offset="1" stop-color="#F0B73F"/>
</linearGradient>
<linearGradient id="paint10_linear_1417_294" x1="62.4095" y1="38.3677" x2="63.7739" y2="47.8166" gradientUnits="userSpaceOnUse">
<stop offset="0.216302" stop-color="#202054"/>
<stop offset="0.593861" stop-color="#AB2638"/>
<stop offset="1" stop-color="#F0B73F"/>
</linearGradient>
<linearGradient id="paint11_linear_1417_294" x1="62.4095" y1="38.3677" x2="63.7739" y2="47.8166" gradientUnits="userSpaceOnUse">
<stop offset="0.216302" stop-color="#202054"/>
<stop offset="0.593861" stop-color="#AB2638"/>
<stop offset="1" stop-color="#F0B73F"/>
</linearGradient>
<linearGradient id="paint12_linear_1417_294" x1="62.4095" y1="38.3677" x2="63.7739" y2="47.8166" gradientUnits="userSpaceOnUse">
<stop offset="0.216302" stop-color="#202054"/>
<stop offset="0.593861" stop-color="#AB2638"/>
<stop offset="1" stop-color="#F0B73F"/>
</linearGradient>
<linearGradient id="paint13_linear_1417_294" x1="62.4095" y1="38.3677" x2="63.7739" y2="47.8166" gradientUnits="userSpaceOnUse">
<stop offset="0.216302" stop-color="#202054"/>
<stop offset="0.593861" stop-color="#AB2638"/>
<stop offset="1" stop-color="#F0B73F"/>
</linearGradient>
</defs>
</svg>
